<mxfile host="app.diagrams.net" modified="2022-09-08T04:44:32.079Z" agent="5.0 (Macintosh; Intel Mac OS X 10_15_7) AppleWebKit/537.36 (KHTML, like Gecko) Chrome/105.0.0.0 Safari/537.36" etag="ExCAAw6UmeoRPQjwDQl-" version="20.3.0" type="github">
  <diagram id="Rq4ajxYLPpFM6kEdG1-p" name="第 1 页">
    <mxGraphModel dx="2144" dy="779" grid="1" gridSize="10" guides="1" tooltips="1" connect="1" arrows="1" fold="1" page="1" pageScale="1" pageWidth="1169" pageHeight="1654" math="0" shadow="0">
      <root>
        <mxCell id="0" />
        <mxCell id="1" parent="0" />
        <mxCell id="Tbavl_EoWam0O7su7ffe-4" value="" style="rounded=0;whiteSpace=wrap;html=1;strokeWidth=2;fillColor=none;sketch=1;shadow=1;" vertex="1" parent="1">
          <mxGeometry x="200" y="160" width="250" height="470" as="geometry" />
        </mxCell>
        <mxCell id="Tbavl_EoWam0O7su7ffe-5" value="" style="rounded=0;whiteSpace=wrap;html=1;strokeWidth=2;fillColor=none;sketch=1;shadow=1;" vertex="1" parent="1">
          <mxGeometry x="580" y="160" width="340" height="180" as="geometry" />
        </mxCell>
        <mxCell id="Tbavl_EoWam0O7su7ffe-6" value="" style="rounded=0;whiteSpace=wrap;html=1;strokeWidth=2;fillColor=none;sketch=1;shadow=1;" vertex="1" parent="1">
          <mxGeometry x="580" y="340" width="340" height="290" as="geometry" />
        </mxCell>
        <mxCell id="Tbavl_EoWam0O7su7ffe-8" value="&lt;b&gt;&lt;font style=&quot;font-size: 18px;&quot;&gt;Memory&lt;/font&gt;&lt;/b&gt;" style="text;html=1;align=center;verticalAlign=middle;resizable=0;points=[];autosize=1;strokeColor=none;fillColor=none;" vertex="1" parent="1">
          <mxGeometry x="280" y="640" width="90" height="40" as="geometry" />
        </mxCell>
        <mxCell id="Tbavl_EoWam0O7su7ffe-9" value="&lt;b&gt;Disk&lt;/b&gt;" style="text;html=1;align=center;verticalAlign=middle;resizable=0;points=[];autosize=1;strokeColor=none;fillColor=none;fontSize=18;" vertex="1" parent="1">
          <mxGeometry x="730" y="640" width="60" height="40" as="geometry" />
        </mxCell>
        <mxCell id="Tbavl_EoWam0O7su7ffe-66" style="edgeStyle=orthogonalEdgeStyle;rounded=0;sketch=1;orthogonalLoop=1;jettySize=auto;html=1;strokeWidth=2;fontSize=18;fontColor=#000000;" edge="1" parent="1" source="Tbavl_EoWam0O7su7ffe-11" target="Tbavl_EoWam0O7su7ffe-12">
          <mxGeometry relative="1" as="geometry" />
        </mxCell>
        <mxCell id="Tbavl_EoWam0O7su7ffe-11" value="&lt;b&gt;&lt;font color=&quot;#ffffff&quot; style=&quot;font-size: 24px;&quot;&gt;MemTable&lt;/font&gt;&lt;/b&gt;" style="rounded=0;whiteSpace=wrap;html=1;strokeWidth=2;fillColor=#fa6800;fontColor=#000000;strokeColor=#C73500;sketch=0;" vertex="1" parent="1">
          <mxGeometry x="225" y="215" width="200" height="70" as="geometry" />
        </mxCell>
        <mxCell id="Tbavl_EoWam0O7su7ffe-67" style="edgeStyle=orthogonalEdgeStyle;rounded=0;sketch=1;orthogonalLoop=1;jettySize=auto;html=1;entryX=0.086;entryY=0.2;entryDx=0;entryDy=0;entryPerimeter=0;strokeWidth=2;fontSize=18;fontColor=#000000;" edge="1" parent="1" source="Tbavl_EoWam0O7su7ffe-12" target="Tbavl_EoWam0O7su7ffe-18">
          <mxGeometry relative="1" as="geometry" />
        </mxCell>
        <mxCell id="Tbavl_EoWam0O7su7ffe-12" value="&lt;span style=&quot;font-size: 24px;&quot;&gt;&lt;b&gt;immuTable&lt;/b&gt;&lt;/span&gt;" style="rounded=0;whiteSpace=wrap;html=1;strokeWidth=2;fillColor=#60a917;fontColor=#ffffff;strokeColor=#2D7600;" vertex="1" parent="1">
          <mxGeometry x="225" y="366" width="200" height="70" as="geometry" />
        </mxCell>
        <mxCell id="Tbavl_EoWam0O7su7ffe-80" style="rounded=0;sketch=1;orthogonalLoop=1;jettySize=auto;html=1;entryX=0;entryY=0.5;entryDx=0;entryDy=0;shadow=1;dashed=1;strokeColor=#FF0000;strokeWidth=2;fontSize=18;fontColor=#3333FF;exitX=1.025;exitY=0.407;exitDx=0;exitDy=0;exitPerimeter=0;" edge="1" parent="1" source="Tbavl_EoWam0O7su7ffe-13" target="Tbavl_EoWam0O7su7ffe-18">
          <mxGeometry relative="1" as="geometry" />
        </mxCell>
        <mxCell id="Tbavl_EoWam0O7su7ffe-13" value="&lt;span style=&quot;font-size: 24px;&quot;&gt;&lt;b&gt;Bloom Filter&lt;/b&gt;&lt;/span&gt;" style="rounded=0;whiteSpace=wrap;html=1;strokeWidth=2;fillColor=#e51400;fontColor=#ffffff;strokeColor=#B20000;" vertex="1" parent="1">
          <mxGeometry x="225" y="510" width="200" height="70" as="geometry" />
        </mxCell>
        <mxCell id="Tbavl_EoWam0O7su7ffe-21" value="" style="group" vertex="1" connectable="0" parent="1">
          <mxGeometry x="602.22" y="363" width="90" height="74" as="geometry" />
        </mxCell>
        <mxCell id="Tbavl_EoWam0O7su7ffe-16" value="" style="shape=image;verticalLabelPosition=bottom;labelBackgroundColor=#ffffff;verticalAlign=top;aspect=fixed;imageAspect=0;image=data:image/svg+xml,PHN2ZyB4bWxuczpjYz0iaHR0cDovL2NyZWF0aXZlY29tbW9ucy5vcmcvbnMjIiB4bWxuczpkYz0iaHR0cDovL3B1cmwub3JnL2RjL2VsZW1lbnRzLzEuMS8iIHhtbG5zOmlua3NjYXBlPSJodHRwOi8vd3d3Lmlua3NjYXBlLm9yZy9uYW1lc3BhY2VzL2lua3NjYXBlIiB4bWxuczpyZGY9Imh0dHA6Ly93d3cudzMub3JnLzE5OTkvMDIvMjItcmRmLXN5bnRheC1ucyMiIHhtbG5zOnNvZGlwb2RpPSJodHRwOi8vc29kaXBvZGkuc291cmNlZm9yZ2UubmV0L0RURC9zb2RpcG9kaS0wLmR0ZCIgeG1sbnM6c3ZnPSJodHRwOi8vd3d3LnczLm9yZy8yMDAwL3N2ZyIgeG1sbnM9Imh0dHA6Ly93d3cudzMub3JnLzIwMDAvc3ZnIiB4bWxuczp4bGluaz0iaHR0cDovL3d3dy53My5vcmcvMTk5OS94bGluayIgdmVyc2lvbj0iMS4xIiBpZD0ic3ZnNDc1MTkiIGlua3NjYXBlOnZlcnNpb249IjAuOTIuMyAoMjQwNTU0NiwgMjAxOC0wMy0xMSkiIHNvZGlwb2RpOmRvY25hbWU9ImdlbmVyaWNfZmlsZV8xLnN2ZyIgeD0iMHB4IiB5PSIwcHgiIHZpZXdCb3g9IjAgMCAzMS44OCAzNi40NCIgc3R5bGU9ImVuYWJsZS1iYWNrZ3JvdW5kOm5ldyAwIDAgMzEuODggMzYuNDQ7IiB4bWw6c3BhY2U9InByZXNlcnZlIj4mI3hhOzxzb2RpcG9kaTpuYW1lZHZpZXcgYm9yZGVyY29sb3I9IiM2NjY2NjYiIGJvcmRlcm9wYWNpdHk9IjEiIGZpdC1tYXJnaW4tYm90dG9tPSIwIiBmaXQtbWFyZ2luLWxlZnQ9IjAiIGZpdC1tYXJnaW4tcmlnaHQ9IjAiIGZpdC1tYXJnaW4tdG9wPSIwIiBncmlkdG9sZXJhbmNlPSIxMCIgZ3VpZGV0b2xlcmFuY2U9IjEwIiBpZD0ibmFtZWR2aWV3NDc1MjEiIGlua3NjYXBlOmN1cnJlbnQtbGF5ZXI9InN2ZzQ3NTE5IiBpbmtzY2FwZTpjeD0iMTguMjE4MTc2IiBpbmtzY2FwZTpjeT0iMjEuNjAxMzQ4IiBpbmtzY2FwZTpwYWdlb3BhY2l0eT0iMCIgaW5rc2NhcGU6cGFnZXNoYWRvdz0iMiIgaW5rc2NhcGU6d2luZG93LWhlaWdodD0iMTAxNyIgaW5rc2NhcGU6d2luZG93LW1heGltaXplZD0iMSIgaW5rc2NhcGU6d2luZG93LXdpZHRoPSIxOTIwIiBpbmtzY2FwZTp3aW5kb3cteD0iLTgiIGlua3NjYXBlOndpbmRvdy15PSItOCIgaW5rc2NhcGU6em9vbT0iMTUuMTY4OTU5IiBvYmplY3R0b2xlcmFuY2U9IjEwIiBwYWdlY29sb3I9IiNmZmZmZmYiIHNob3dncmlkPSJmYWxzZSI+JiN4YTsJPC9zb2RpcG9kaTpuYW1lZHZpZXc+JiN4YTs8ZyBpZD0iZzQ3NTE3IiB0cmFuc2Zvcm09InRyYW5zbGF0ZSgtMTAuOTI4NjI5LC0xLjE5NDYzKSI+JiN4YTsJPHRpdGxlIGlkPSJ0aXRsZTQ3NDg3Ij5QYWdlLTE8L3RpdGxlPiYjeGE7CTxnIGlkPSJncm91cDQ1MjUtMSIgdHJhbnNmb3JtPSJ0cmFuc2xhdGUoMTAuOTI4NiwtNS4yMzUzNykiPiYjeGE7CQk8dGl0bGUgaWQ9InRpdGxlNDc0ODkiPkdlbmVyaWMgRmlsZSAjMTwvdGl0bGU+JiN4YTsJCTxnIGlkPSJzaGFwZTQ1MjYtMiIgdHJhbnNmb3JtPSJ0cmFuc2xhdGUoNC41NTQ1NikiPiYjeGE7CQkJPHRpdGxlIGlkPSJ0aXRsZTQ3NDkxIj5TaGVldC40NTI2PC90aXRsZT4mI3hhOwkJCTxwYXRoIGlkPSJwYXRoNDc0OTMiIGlua3NjYXBlOmNvbm5lY3Rvci1jdXJ2YXR1cmU9IjAiIHN0eWxlPSJmaWxsOiNFMkU1RTc7IiBkPSJNMi4yOCw2LjQzQzEuMDIsNi40MywwLDcuNDYsMCw4LjcxdjMxLjg4ICAgICBjMCwxLjI1LDEuMDIsMi4yOCwyLjI4LDIuMjhoMjIuNzdjMS4yNSwwLDIuMjgtMS4wMywyLjI4LTIuMjhWMTUuNTRsLTkuMTEtOS4xMUgyLjI4eiIvPiYjeGE7CQk8L2c+JiN4YTsJCTxnIGlkPSJzaGFwZTQ1MjctNCIgdHJhbnNmb3JtPSJ0cmFuc2xhdGUoMjIuNzcyOCwtMjcuMzI3NCkiPiYjeGE7CQkJPHRpdGxlIGlkPSJ0aXRsZTQ3NDk2Ij5TaGVldC40NTI3PC90aXRsZT4mI3hhOwkJCTxwYXRoIGlkPSJwYXRoNDc0OTgiIGlua3NjYXBlOmNvbm5lY3Rvci1jdXJ2YXR1cmU9IjAiIHN0eWxlPSJmaWxsOiNCMEI3QkQ7IiBkPSJNMi4yOCw0Mi44N2g2LjgzTDAsMzMuNzZ2Ni44MyAgICAgQzAsNDEuODQsMS4wMiw0Mi44NywyLjI4LDQyLjg3eiIvPiYjeGE7CQk8L2c+JiN4YTsJCTxnIGlkPSJzaGFwZTQ1MjgtNiIgdHJhbnNmb3JtPSJ0cmFuc2xhdGUoMjUuMDUwMSwtMjAuNDk1NSkiPiYjeGE7CQkJPHRpdGxlIGlkPSJ0aXRsZTQ3NTAxIj5TaGVldC40NTI4PC90aXRsZT4mI3hhOwkJCTxwYXRoIGlkPSJwYXRoNDc1MDMiIGlua3NjYXBlOmNvbm5lY3Rvci1jdXJ2YXR1cmU9IjAiIHN0eWxlPSJmaWxsOiNDQUQxRDg7IiBkPSJNNi44Myw0Mi44N0wwLDM2LjA0aDYuODNWNDIuODd6Ii8+JiN4YTsJCTwvZz4mI3hhOwkJPGcgaWQ9InNoYXBlNDUyOS04IiB0cmFuc2Zvcm09InRyYW5zbGF0ZSgwLC01LjY5MzIpIj4mI3hhOwkJCTx0aXRsZSBpZD0idGl0bGU0NzUwNiI+U2hlZXQuNDUyOTwvdGl0bGU+JiN4YTsJCQk8cGF0aCBpZD0icGF0aDQ3NTA4IiBpbmtzY2FwZTpjb25uZWN0b3ItY3VydmF0dXJlPSIwIiBzdHlsZT0iZmlsbDojOTc3N0E4OyIgZD0iTTI3LjMzLDQxLjczYzAsMC42Mi0wLjUyLDEuMTQtMS4xNCwxLjE0SDEuMTQgICAgIEMwLjUxLDQyLjg3LDAsNDIuMzUsMCw0MS43M1YzMC4zNGMwLTAuNjIsMC41MS0xLjE0LDEuMTQtMS4xNGgyNS4wNWMwLjYyLDAsMS4xNCwwLjUyLDEuMTQsMS4xNEwyNy4zMyw0MS43M3oiLz4mI3hhOwkJPC9nPiYjeGE7CQk8ZyBpZD0ic2hhcGU0NTMwLTEwIiB0cmFuc2Zvcm09InRyYW5zbGF0ZSg0LjU1NDU2LC00LjU1NDU2KSI+JiN4YTsJCQk8dGl0bGUgaWQ9InRpdGxlNDc1MTEiPlNoZWV0LjQ1MzA8L3RpdGxlPiYjeGE7CQkJPHBhdGggaWQ9InBhdGg0NzUxMyIgaW5rc2NhcGU6Y29ubmVjdG9yLWN1cnZhdHVyZT0iMCIgc3R5bGU9ImZpbGw6I0NBRDFEODsiIGQ9Ik0yMS42Myw0MS43M0gwdjEuMTRoMjEuNjMgICAgIGMwLjYzLDAsMS4xNC0wLjUyLDEuMTQtMS4xNHYtMS4xNEMyMi43Nyw0MS4yMiwyMi4yNiw0MS43MywyMS42Myw0MS43M3oiLz4mI3hhOwkJPC9nPiYjeGE7CTwvZz4mI3hhOzwvZz4mI3hhOzwvc3ZnPg==;rounded=0;shadow=1;glass=0;sketch=1;strokeWidth=2;fontSize=24;fontColor=#FFFFFF;" vertex="1" parent="Tbavl_EoWam0O7su7ffe-21">
          <mxGeometry x="17.110000000000014" width="65.78" height="74" as="geometry" />
        </mxCell>
        <mxCell id="Tbavl_EoWam0O7su7ffe-18" value="&lt;font style=&quot;font-size: 16px;&quot; color=&quot;#000000&quot;&gt;&lt;b&gt;L0 SST&lt;/b&gt;&lt;/font&gt;" style="text;html=1;strokeColor=none;fillColor=none;align=center;verticalAlign=middle;whiteSpace=wrap;rounded=0;shadow=1;glass=0;sketch=1;strokeWidth=2;fontSize=24;fontColor=#FFFFFF;" vertex="1" parent="Tbavl_EoWam0O7su7ffe-21">
          <mxGeometry y="32" width="90" height="30" as="geometry" />
        </mxCell>
        <mxCell id="Tbavl_EoWam0O7su7ffe-26" value="" style="group" vertex="1" connectable="0" parent="1">
          <mxGeometry x="600" y="454" width="90" height="74" as="geometry" />
        </mxCell>
        <mxCell id="Tbavl_EoWam0O7su7ffe-27" value="" style="shape=image;verticalLabelPosition=bottom;labelBackgroundColor=#ffffff;verticalAlign=top;aspect=fixed;imageAspect=0;image=data:image/svg+xml,PHN2ZyB4bWxuczpjYz0iaHR0cDovL2NyZWF0aXZlY29tbW9ucy5vcmcvbnMjIiB4bWxuczpkYz0iaHR0cDovL3B1cmwub3JnL2RjL2VsZW1lbnRzLzEuMS8iIHhtbG5zOmlua3NjYXBlPSJodHRwOi8vd3d3Lmlua3NjYXBlLm9yZy9uYW1lc3BhY2VzL2lua3NjYXBlIiB4bWxuczpyZGY9Imh0dHA6Ly93d3cudzMub3JnLzE5OTkvMDIvMjItcmRmLXN5bnRheC1ucyMiIHhtbG5zOnNvZGlwb2RpPSJodHRwOi8vc29kaXBvZGkuc291cmNlZm9yZ2UubmV0L0RURC9zb2RpcG9kaS0wLmR0ZCIgeG1sbnM6c3ZnPSJodHRwOi8vd3d3LnczLm9yZy8yMDAwL3N2ZyIgeG1sbnM9Imh0dHA6Ly93d3cudzMub3JnLzIwMDAvc3ZnIiB4bWxuczp4bGluaz0iaHR0cDovL3d3dy53My5vcmcvMTk5OS94bGluayIgdmVyc2lvbj0iMS4xIiBpZD0ic3ZnNDc1MTkiIGlua3NjYXBlOnZlcnNpb249IjAuOTIuMyAoMjQwNTU0NiwgMjAxOC0wMy0xMSkiIHNvZGlwb2RpOmRvY25hbWU9ImdlbmVyaWNfZmlsZV8xLnN2ZyIgeD0iMHB4IiB5PSIwcHgiIHZpZXdCb3g9IjAgMCAzMS44OCAzNi40NCIgc3R5bGU9ImVuYWJsZS1iYWNrZ3JvdW5kOm5ldyAwIDAgMzEuODggMzYuNDQ7IiB4bWw6c3BhY2U9InByZXNlcnZlIj4mI3hhOzxzb2RpcG9kaTpuYW1lZHZpZXcgYm9yZGVyY29sb3I9IiM2NjY2NjYiIGJvcmRlcm9wYWNpdHk9IjEiIGZpdC1tYXJnaW4tYm90dG9tPSIwIiBmaXQtbWFyZ2luLWxlZnQ9IjAiIGZpdC1tYXJnaW4tcmlnaHQ9IjAiIGZpdC1tYXJnaW4tdG9wPSIwIiBncmlkdG9sZXJhbmNlPSIxMCIgZ3VpZGV0b2xlcmFuY2U9IjEwIiBpZD0ibmFtZWR2aWV3NDc1MjEiIGlua3NjYXBlOmN1cnJlbnQtbGF5ZXI9InN2ZzQ3NTE5IiBpbmtzY2FwZTpjeD0iMTguMjE4MTc2IiBpbmtzY2FwZTpjeT0iMjEuNjAxMzQ4IiBpbmtzY2FwZTpwYWdlb3BhY2l0eT0iMCIgaW5rc2NhcGU6cGFnZXNoYWRvdz0iMiIgaW5rc2NhcGU6d2luZG93LWhlaWdodD0iMTAxNyIgaW5rc2NhcGU6d2luZG93LW1heGltaXplZD0iMSIgaW5rc2NhcGU6d2luZG93LXdpZHRoPSIxOTIwIiBpbmtzY2FwZTp3aW5kb3cteD0iLTgiIGlua3NjYXBlOndpbmRvdy15PSItOCIgaW5rc2NhcGU6em9vbT0iMTUuMTY4OTU5IiBvYmplY3R0b2xlcmFuY2U9IjEwIiBwYWdlY29sb3I9IiNmZmZmZmYiIHNob3dncmlkPSJmYWxzZSI+JiN4YTsJPC9zb2RpcG9kaTpuYW1lZHZpZXc+JiN4YTs8ZyBpZD0iZzQ3NTE3IiB0cmFuc2Zvcm09InRyYW5zbGF0ZSgtMTAuOTI4NjI5LC0xLjE5NDYzKSI+JiN4YTsJPHRpdGxlIGlkPSJ0aXRsZTQ3NDg3Ij5QYWdlLTE8L3RpdGxlPiYjeGE7CTxnIGlkPSJncm91cDQ1MjUtMSIgdHJhbnNmb3JtPSJ0cmFuc2xhdGUoMTAuOTI4NiwtNS4yMzUzNykiPiYjeGE7CQk8dGl0bGUgaWQ9InRpdGxlNDc0ODkiPkdlbmVyaWMgRmlsZSAjMTwvdGl0bGU+JiN4YTsJCTxnIGlkPSJzaGFwZTQ1MjYtMiIgdHJhbnNmb3JtPSJ0cmFuc2xhdGUoNC41NTQ1NikiPiYjeGE7CQkJPHRpdGxlIGlkPSJ0aXRsZTQ3NDkxIj5TaGVldC40NTI2PC90aXRsZT4mI3hhOwkJCTxwYXRoIGlkPSJwYXRoNDc0OTMiIGlua3NjYXBlOmNvbm5lY3Rvci1jdXJ2YXR1cmU9IjAiIHN0eWxlPSJmaWxsOiNFMkU1RTc7IiBkPSJNMi4yOCw2LjQzQzEuMDIsNi40MywwLDcuNDYsMCw4LjcxdjMxLjg4ICAgICBjMCwxLjI1LDEuMDIsMi4yOCwyLjI4LDIuMjhoMjIuNzdjMS4yNSwwLDIuMjgtMS4wMywyLjI4LTIuMjhWMTUuNTRsLTkuMTEtOS4xMUgyLjI4eiIvPiYjeGE7CQk8L2c+JiN4YTsJCTxnIGlkPSJzaGFwZTQ1MjctNCIgdHJhbnNmb3JtPSJ0cmFuc2xhdGUoMjIuNzcyOCwtMjcuMzI3NCkiPiYjeGE7CQkJPHRpdGxlIGlkPSJ0aXRsZTQ3NDk2Ij5TaGVldC40NTI3PC90aXRsZT4mI3hhOwkJCTxwYXRoIGlkPSJwYXRoNDc0OTgiIGlua3NjYXBlOmNvbm5lY3Rvci1jdXJ2YXR1cmU9IjAiIHN0eWxlPSJmaWxsOiNCMEI3QkQ7IiBkPSJNMi4yOCw0Mi44N2g2LjgzTDAsMzMuNzZ2Ni44MyAgICAgQzAsNDEuODQsMS4wMiw0Mi44NywyLjI4LDQyLjg3eiIvPiYjeGE7CQk8L2c+JiN4YTsJCTxnIGlkPSJzaGFwZTQ1MjgtNiIgdHJhbnNmb3JtPSJ0cmFuc2xhdGUoMjUuMDUwMSwtMjAuNDk1NSkiPiYjeGE7CQkJPHRpdGxlIGlkPSJ0aXRsZTQ3NTAxIj5TaGVldC40NTI4PC90aXRsZT4mI3hhOwkJCTxwYXRoIGlkPSJwYXRoNDc1MDMiIGlua3NjYXBlOmNvbm5lY3Rvci1jdXJ2YXR1cmU9IjAiIHN0eWxlPSJmaWxsOiNDQUQxRDg7IiBkPSJNNi44Myw0Mi44N0wwLDM2LjA0aDYuODNWNDIuODd6Ii8+JiN4YTsJCTwvZz4mI3hhOwkJPGcgaWQ9InNoYXBlNDUyOS04IiB0cmFuc2Zvcm09InRyYW5zbGF0ZSgwLC01LjY5MzIpIj4mI3hhOwkJCTx0aXRsZSBpZD0idGl0bGU0NzUwNiI+U2hlZXQuNDUyOTwvdGl0bGU+JiN4YTsJCQk8cGF0aCBpZD0icGF0aDQ3NTA4IiBpbmtzY2FwZTpjb25uZWN0b3ItY3VydmF0dXJlPSIwIiBzdHlsZT0iZmlsbDojOTc3N0E4OyIgZD0iTTI3LjMzLDQxLjczYzAsMC42Mi0wLjUyLDEuMTQtMS4xNCwxLjE0SDEuMTQgICAgIEMwLjUxLDQyLjg3LDAsNDIuMzUsMCw0MS43M1YzMC4zNGMwLTAuNjIsMC41MS0xLjE0LDEuMTQtMS4xNGgyNS4wNWMwLjYyLDAsMS4xNCwwLjUyLDEuMTQsMS4xNEwyNy4zMyw0MS43M3oiLz4mI3hhOwkJPC9nPiYjeGE7CQk8ZyBpZD0ic2hhcGU0NTMwLTEwIiB0cmFuc2Zvcm09InRyYW5zbGF0ZSg0LjU1NDU2LC00LjU1NDU2KSI+JiN4YTsJCQk8dGl0bGUgaWQ9InRpdGxlNDc1MTEiPlNoZWV0LjQ1MzA8L3RpdGxlPiYjeGE7CQkJPHBhdGggaWQ9InBhdGg0NzUxMyIgaW5rc2NhcGU6Y29ubmVjdG9yLWN1cnZhdHVyZT0iMCIgc3R5bGU9ImZpbGw6I0NBRDFEODsiIGQ9Ik0yMS42Myw0MS43M0gwdjEuMTRoMjEuNjMgICAgIGMwLjYzLDAsMS4xNC0wLjUyLDEuMTQtMS4xNHYtMS4xNEMyMi43Nyw0MS4yMiwyMi4yNiw0MS43MywyMS42Myw0MS43M3oiLz4mI3hhOwkJPC9nPiYjeGE7CTwvZz4mI3hhOzwvZz4mI3hhOzwvc3ZnPg==;rounded=0;shadow=1;glass=0;sketch=1;strokeWidth=2;fontSize=24;fontColor=#FFFFFF;" vertex="1" parent="Tbavl_EoWam0O7su7ffe-26">
          <mxGeometry x="17.110000000000014" width="65.78" height="74" as="geometry" />
        </mxCell>
        <mxCell id="Tbavl_EoWam0O7su7ffe-28" value="&lt;font style=&quot;font-size: 16px;&quot; color=&quot;#000000&quot;&gt;&lt;b&gt;L1 SST&lt;/b&gt;&lt;/font&gt;" style="text;html=1;strokeColor=none;fillColor=none;align=center;verticalAlign=middle;whiteSpace=wrap;rounded=0;shadow=1;glass=0;sketch=1;strokeWidth=2;fontSize=24;fontColor=#FFFFFF;" vertex="1" parent="Tbavl_EoWam0O7su7ffe-26">
          <mxGeometry y="32" width="90" height="30" as="geometry" />
        </mxCell>
        <mxCell id="Tbavl_EoWam0O7su7ffe-29" value="" style="group" vertex="1" connectable="0" parent="1">
          <mxGeometry x="700" y="454" width="90" height="74" as="geometry" />
        </mxCell>
        <mxCell id="Tbavl_EoWam0O7su7ffe-30" value="" style="shape=image;verticalLabelPosition=bottom;labelBackgroundColor=#ffffff;verticalAlign=top;aspect=fixed;imageAspect=0;image=data:image/svg+xml,PHN2ZyB4bWxuczpjYz0iaHR0cDovL2NyZWF0aXZlY29tbW9ucy5vcmcvbnMjIiB4bWxuczpkYz0iaHR0cDovL3B1cmwub3JnL2RjL2VsZW1lbnRzLzEuMS8iIHhtbG5zOmlua3NjYXBlPSJodHRwOi8vd3d3Lmlua3NjYXBlLm9yZy9uYW1lc3BhY2VzL2lua3NjYXBlIiB4bWxuczpyZGY9Imh0dHA6Ly93d3cudzMub3JnLzE5OTkvMDIvMjItcmRmLXN5bnRheC1ucyMiIHhtbG5zOnNvZGlwb2RpPSJodHRwOi8vc29kaXBvZGkuc291cmNlZm9yZ2UubmV0L0RURC9zb2RpcG9kaS0wLmR0ZCIgeG1sbnM6c3ZnPSJodHRwOi8vd3d3LnczLm9yZy8yMDAwL3N2ZyIgeG1sbnM9Imh0dHA6Ly93d3cudzMub3JnLzIwMDAvc3ZnIiB4bWxuczp4bGluaz0iaHR0cDovL3d3dy53My5vcmcvMTk5OS94bGluayIgdmVyc2lvbj0iMS4xIiBpZD0ic3ZnNDc1MTkiIGlua3NjYXBlOnZlcnNpb249IjAuOTIuMyAoMjQwNTU0NiwgMjAxOC0wMy0xMSkiIHNvZGlwb2RpOmRvY25hbWU9ImdlbmVyaWNfZmlsZV8xLnN2ZyIgeD0iMHB4IiB5PSIwcHgiIHZpZXdCb3g9IjAgMCAzMS44OCAzNi40NCIgc3R5bGU9ImVuYWJsZS1iYWNrZ3JvdW5kOm5ldyAwIDAgMzEuODggMzYuNDQ7IiB4bWw6c3BhY2U9InByZXNlcnZlIj4mI3hhOzxzb2RpcG9kaTpuYW1lZHZpZXcgYm9yZGVyY29sb3I9IiM2NjY2NjYiIGJvcmRlcm9wYWNpdHk9IjEiIGZpdC1tYXJnaW4tYm90dG9tPSIwIiBmaXQtbWFyZ2luLWxlZnQ9IjAiIGZpdC1tYXJnaW4tcmlnaHQ9IjAiIGZpdC1tYXJnaW4tdG9wPSIwIiBncmlkdG9sZXJhbmNlPSIxMCIgZ3VpZGV0b2xlcmFuY2U9IjEwIiBpZD0ibmFtZWR2aWV3NDc1MjEiIGlua3NjYXBlOmN1cnJlbnQtbGF5ZXI9InN2ZzQ3NTE5IiBpbmtzY2FwZTpjeD0iMTguMjE4MTc2IiBpbmtzY2FwZTpjeT0iMjEuNjAxMzQ4IiBpbmtzY2FwZTpwYWdlb3BhY2l0eT0iMCIgaW5rc2NhcGU6cGFnZXNoYWRvdz0iMiIgaW5rc2NhcGU6d2luZG93LWhlaWdodD0iMTAxNyIgaW5rc2NhcGU6d2luZG93LW1heGltaXplZD0iMSIgaW5rc2NhcGU6d2luZG93LXdpZHRoPSIxOTIwIiBpbmtzY2FwZTp3aW5kb3cteD0iLTgiIGlua3NjYXBlOndpbmRvdy15PSItOCIgaW5rc2NhcGU6em9vbT0iMTUuMTY4OTU5IiBvYmplY3R0b2xlcmFuY2U9IjEwIiBwYWdlY29sb3I9IiNmZmZmZmYiIHNob3dncmlkPSJmYWxzZSI+JiN4YTsJPC9zb2RpcG9kaTpuYW1lZHZpZXc+JiN4YTs8ZyBpZD0iZzQ3NTE3IiB0cmFuc2Zvcm09InRyYW5zbGF0ZSgtMTAuOTI4NjI5LC0xLjE5NDYzKSI+JiN4YTsJPHRpdGxlIGlkPSJ0aXRsZTQ3NDg3Ij5QYWdlLTE8L3RpdGxlPiYjeGE7CTxnIGlkPSJncm91cDQ1MjUtMSIgdHJhbnNmb3JtPSJ0cmFuc2xhdGUoMTAuOTI4NiwtNS4yMzUzNykiPiYjeGE7CQk8dGl0bGUgaWQ9InRpdGxlNDc0ODkiPkdlbmVyaWMgRmlsZSAjMTwvdGl0bGU+JiN4YTsJCTxnIGlkPSJzaGFwZTQ1MjYtMiIgdHJhbnNmb3JtPSJ0cmFuc2xhdGUoNC41NTQ1NikiPiYjeGE7CQkJPHRpdGxlIGlkPSJ0aXRsZTQ3NDkxIj5TaGVldC40NTI2PC90aXRsZT4mI3hhOwkJCTxwYXRoIGlkPSJwYXRoNDc0OTMiIGlua3NjYXBlOmNvbm5lY3Rvci1jdXJ2YXR1cmU9IjAiIHN0eWxlPSJmaWxsOiNFMkU1RTc7IiBkPSJNMi4yOCw2LjQzQzEuMDIsNi40MywwLDcuNDYsMCw4LjcxdjMxLjg4ICAgICBjMCwxLjI1LDEuMDIsMi4yOCwyLjI4LDIuMjhoMjIuNzdjMS4yNSwwLDIuMjgtMS4wMywyLjI4LTIuMjhWMTUuNTRsLTkuMTEtOS4xMUgyLjI4eiIvPiYjeGE7CQk8L2c+JiN4YTsJCTxnIGlkPSJzaGFwZTQ1MjctNCIgdHJhbnNmb3JtPSJ0cmFuc2xhdGUoMjIuNzcyOCwtMjcuMzI3NCkiPiYjeGE7CQkJPHRpdGxlIGlkPSJ0aXRsZTQ3NDk2Ij5TaGVldC40NTI3PC90aXRsZT4mI3hhOwkJCTxwYXRoIGlkPSJwYXRoNDc0OTgiIGlua3NjYXBlOmNvbm5lY3Rvci1jdXJ2YXR1cmU9IjAiIHN0eWxlPSJmaWxsOiNCMEI3QkQ7IiBkPSJNMi4yOCw0Mi44N2g2LjgzTDAsMzMuNzZ2Ni44MyAgICAgQzAsNDEuODQsMS4wMiw0Mi44NywyLjI4LDQyLjg3eiIvPiYjeGE7CQk8L2c+JiN4YTsJCTxnIGlkPSJzaGFwZTQ1MjgtNiIgdHJhbnNmb3JtPSJ0cmFuc2xhdGUoMjUuMDUwMSwtMjAuNDk1NSkiPiYjeGE7CQkJPHRpdGxlIGlkPSJ0aXRsZTQ3NTAxIj5TaGVldC40NTI4PC90aXRsZT4mI3hhOwkJCTxwYXRoIGlkPSJwYXRoNDc1MDMiIGlua3NjYXBlOmNvbm5lY3Rvci1jdXJ2YXR1cmU9IjAiIHN0eWxlPSJmaWxsOiNDQUQxRDg7IiBkPSJNNi44Myw0Mi44N0wwLDM2LjA0aDYuODNWNDIuODd6Ii8+JiN4YTsJCTwvZz4mI3hhOwkJPGcgaWQ9InNoYXBlNDUyOS04IiB0cmFuc2Zvcm09InRyYW5zbGF0ZSgwLC01LjY5MzIpIj4mI3hhOwkJCTx0aXRsZSBpZD0idGl0bGU0NzUwNiI+U2hlZXQuNDUyOTwvdGl0bGU+JiN4YTsJCQk8cGF0aCBpZD0icGF0aDQ3NTA4IiBpbmtzY2FwZTpjb25uZWN0b3ItY3VydmF0dXJlPSIwIiBzdHlsZT0iZmlsbDojOTc3N0E4OyIgZD0iTTI3LjMzLDQxLjczYzAsMC42Mi0wLjUyLDEuMTQtMS4xNCwxLjE0SDEuMTQgICAgIEMwLjUxLDQyLjg3LDAsNDIuMzUsMCw0MS43M1YzMC4zNGMwLTAuNjIsMC41MS0xLjE0LDEuMTQtMS4xNGgyNS4wNWMwLjYyLDAsMS4xNCwwLjUyLDEuMTQsMS4xNEwyNy4zMyw0MS43M3oiLz4mI3hhOwkJPC9nPiYjeGE7CQk8ZyBpZD0ic2hhcGU0NTMwLTEwIiB0cmFuc2Zvcm09InRyYW5zbGF0ZSg0LjU1NDU2LC00LjU1NDU2KSI+JiN4YTsJCQk8dGl0bGUgaWQ9InRpdGxlNDc1MTEiPlNoZWV0LjQ1MzA8L3RpdGxlPiYjeGE7CQkJPHBhdGggaWQ9InBhdGg0NzUxMyIgaW5rc2NhcGU6Y29ubmVjdG9yLWN1cnZhdHVyZT0iMCIgc3R5bGU9ImZpbGw6I0NBRDFEODsiIGQ9Ik0yMS42Myw0MS43M0gwdjEuMTRoMjEuNjMgICAgIGMwLjYzLDAsMS4xNC0wLjUyLDEuMTQtMS4xNHYtMS4xNEMyMi43Nyw0MS4yMiwyMi4yNiw0MS43MywyMS42Myw0MS43M3oiLz4mI3hhOwkJPC9nPiYjeGE7CTwvZz4mI3hhOzwvZz4mI3hhOzwvc3ZnPg==;rounded=0;shadow=1;glass=0;sketch=1;strokeWidth=2;fontSize=24;fontColor=#FFFFFF;" vertex="1" parent="Tbavl_EoWam0O7su7ffe-29">
          <mxGeometry x="17.110000000000014" width="65.78" height="74" as="geometry" />
        </mxCell>
        <mxCell id="Tbavl_EoWam0O7su7ffe-31" value="&lt;font style=&quot;font-size: 16px;&quot; color=&quot;#000000&quot;&gt;&lt;b&gt;L1 SST&lt;/b&gt;&lt;/font&gt;" style="text;html=1;strokeColor=none;fillColor=none;align=center;verticalAlign=middle;whiteSpace=wrap;rounded=0;shadow=1;glass=0;sketch=1;strokeWidth=2;fontSize=24;fontColor=#FFFFFF;" vertex="1" parent="Tbavl_EoWam0O7su7ffe-29">
          <mxGeometry y="32" width="90" height="30" as="geometry" />
        </mxCell>
        <mxCell id="Tbavl_EoWam0O7su7ffe-45" value="" style="group" vertex="1" connectable="0" parent="1">
          <mxGeometry x="600" y="550" width="90" height="74" as="geometry" />
        </mxCell>
        <mxCell id="Tbavl_EoWam0O7su7ffe-46" value="" style="shape=image;verticalLabelPosition=bottom;labelBackgroundColor=#ffffff;verticalAlign=top;aspect=fixed;imageAspect=0;image=data:image/svg+xml,PHN2ZyB4bWxuczpjYz0iaHR0cDovL2NyZWF0aXZlY29tbW9ucy5vcmcvbnMjIiB4bWxuczpkYz0iaHR0cDovL3B1cmwub3JnL2RjL2VsZW1lbnRzLzEuMS8iIHhtbG5zOmlua3NjYXBlPSJodHRwOi8vd3d3Lmlua3NjYXBlLm9yZy9uYW1lc3BhY2VzL2lua3NjYXBlIiB4bWxuczpyZGY9Imh0dHA6Ly93d3cudzMub3JnLzE5OTkvMDIvMjItcmRmLXN5bnRheC1ucyMiIHhtbG5zOnNvZGlwb2RpPSJodHRwOi8vc29kaXBvZGkuc291cmNlZm9yZ2UubmV0L0RURC9zb2RpcG9kaS0wLmR0ZCIgeG1sbnM6c3ZnPSJodHRwOi8vd3d3LnczLm9yZy8yMDAwL3N2ZyIgeG1sbnM9Imh0dHA6Ly93d3cudzMub3JnLzIwMDAvc3ZnIiB4bWxuczp4bGluaz0iaHR0cDovL3d3dy53My5vcmcvMTk5OS94bGluayIgdmVyc2lvbj0iMS4xIiBpZD0ic3ZnNDc1MTkiIGlua3NjYXBlOnZlcnNpb249IjAuOTIuMyAoMjQwNTU0NiwgMjAxOC0wMy0xMSkiIHNvZGlwb2RpOmRvY25hbWU9ImdlbmVyaWNfZmlsZV8xLnN2ZyIgeD0iMHB4IiB5PSIwcHgiIHZpZXdCb3g9IjAgMCAzMS44OCAzNi40NCIgc3R5bGU9ImVuYWJsZS1iYWNrZ3JvdW5kOm5ldyAwIDAgMzEuODggMzYuNDQ7IiB4bWw6c3BhY2U9InByZXNlcnZlIj4mI3hhOzxzb2RpcG9kaTpuYW1lZHZpZXcgYm9yZGVyY29sb3I9IiM2NjY2NjYiIGJvcmRlcm9wYWNpdHk9IjEiIGZpdC1tYXJnaW4tYm90dG9tPSIwIiBmaXQtbWFyZ2luLWxlZnQ9IjAiIGZpdC1tYXJnaW4tcmlnaHQ9IjAiIGZpdC1tYXJnaW4tdG9wPSIwIiBncmlkdG9sZXJhbmNlPSIxMCIgZ3VpZGV0b2xlcmFuY2U9IjEwIiBpZD0ibmFtZWR2aWV3NDc1MjEiIGlua3NjYXBlOmN1cnJlbnQtbGF5ZXI9InN2ZzQ3NTE5IiBpbmtzY2FwZTpjeD0iMTguMjE4MTc2IiBpbmtzY2FwZTpjeT0iMjEuNjAxMzQ4IiBpbmtzY2FwZTpwYWdlb3BhY2l0eT0iMCIgaW5rc2NhcGU6cGFnZXNoYWRvdz0iMiIgaW5rc2NhcGU6d2luZG93LWhlaWdodD0iMTAxNyIgaW5rc2NhcGU6d2luZG93LW1heGltaXplZD0iMSIgaW5rc2NhcGU6d2luZG93LXdpZHRoPSIxOTIwIiBpbmtzY2FwZTp3aW5kb3cteD0iLTgiIGlua3NjYXBlOndpbmRvdy15PSItOCIgaW5rc2NhcGU6em9vbT0iMTUuMTY4OTU5IiBvYmplY3R0b2xlcmFuY2U9IjEwIiBwYWdlY29sb3I9IiNmZmZmZmYiIHNob3dncmlkPSJmYWxzZSI+JiN4YTsJPC9zb2RpcG9kaTpuYW1lZHZpZXc+JiN4YTs8ZyBpZD0iZzQ3NTE3IiB0cmFuc2Zvcm09InRyYW5zbGF0ZSgtMTAuOTI4NjI5LC0xLjE5NDYzKSI+JiN4YTsJPHRpdGxlIGlkPSJ0aXRsZTQ3NDg3Ij5QYWdlLTE8L3RpdGxlPiYjeGE7CTxnIGlkPSJncm91cDQ1MjUtMSIgdHJhbnNmb3JtPSJ0cmFuc2xhdGUoMTAuOTI4NiwtNS4yMzUzNykiPiYjeGE7CQk8dGl0bGUgaWQ9InRpdGxlNDc0ODkiPkdlbmVyaWMgRmlsZSAjMTwvdGl0bGU+JiN4YTsJCTxnIGlkPSJzaGFwZTQ1MjYtMiIgdHJhbnNmb3JtPSJ0cmFuc2xhdGUoNC41NTQ1NikiPiYjeGE7CQkJPHRpdGxlIGlkPSJ0aXRsZTQ3NDkxIj5TaGVldC40NTI2PC90aXRsZT4mI3hhOwkJCTxwYXRoIGlkPSJwYXRoNDc0OTMiIGlua3NjYXBlOmNvbm5lY3Rvci1jdXJ2YXR1cmU9IjAiIHN0eWxlPSJmaWxsOiNFMkU1RTc7IiBkPSJNMi4yOCw2LjQzQzEuMDIsNi40MywwLDcuNDYsMCw4LjcxdjMxLjg4ICAgICBjMCwxLjI1LDEuMDIsMi4yOCwyLjI4LDIuMjhoMjIuNzdjMS4yNSwwLDIuMjgtMS4wMywyLjI4LTIuMjhWMTUuNTRsLTkuMTEtOS4xMUgyLjI4eiIvPiYjeGE7CQk8L2c+JiN4YTsJCTxnIGlkPSJzaGFwZTQ1MjctNCIgdHJhbnNmb3JtPSJ0cmFuc2xhdGUoMjIuNzcyOCwtMjcuMzI3NCkiPiYjeGE7CQkJPHRpdGxlIGlkPSJ0aXRsZTQ3NDk2Ij5TaGVldC40NTI3PC90aXRsZT4mI3hhOwkJCTxwYXRoIGlkPSJwYXRoNDc0OTgiIGlua3NjYXBlOmNvbm5lY3Rvci1jdXJ2YXR1cmU9IjAiIHN0eWxlPSJmaWxsOiNCMEI3QkQ7IiBkPSJNMi4yOCw0Mi44N2g2LjgzTDAsMzMuNzZ2Ni44MyAgICAgQzAsNDEuODQsMS4wMiw0Mi44NywyLjI4LDQyLjg3eiIvPiYjeGE7CQk8L2c+JiN4YTsJCTxnIGlkPSJzaGFwZTQ1MjgtNiIgdHJhbnNmb3JtPSJ0cmFuc2xhdGUoMjUuMDUwMSwtMjAuNDk1NSkiPiYjeGE7CQkJPHRpdGxlIGlkPSJ0aXRsZTQ3NTAxIj5TaGVldC40NTI4PC90aXRsZT4mI3hhOwkJCTxwYXRoIGlkPSJwYXRoNDc1MDMiIGlua3NjYXBlOmNvbm5lY3Rvci1jdXJ2YXR1cmU9IjAiIHN0eWxlPSJmaWxsOiNDQUQxRDg7IiBkPSJNNi44Myw0Mi44N0wwLDM2LjA0aDYuODNWNDIuODd6Ii8+JiN4YTsJCTwvZz4mI3hhOwkJPGcgaWQ9InNoYXBlNDUyOS04IiB0cmFuc2Zvcm09InRyYW5zbGF0ZSgwLC01LjY5MzIpIj4mI3hhOwkJCTx0aXRsZSBpZD0idGl0bGU0NzUwNiI+U2hlZXQuNDUyOTwvdGl0bGU+JiN4YTsJCQk8cGF0aCBpZD0icGF0aDQ3NTA4IiBpbmtzY2FwZTpjb25uZWN0b3ItY3VydmF0dXJlPSIwIiBzdHlsZT0iZmlsbDojOTc3N0E4OyIgZD0iTTI3LjMzLDQxLjczYzAsMC42Mi0wLjUyLDEuMTQtMS4xNCwxLjE0SDEuMTQgICAgIEMwLjUxLDQyLjg3LDAsNDIuMzUsMCw0MS43M1YzMC4zNGMwLTAuNjIsMC41MS0xLjE0LDEuMTQtMS4xNGgyNS4wNWMwLjYyLDAsMS4xNCwwLjUyLDEuMTQsMS4xNEwyNy4zMyw0MS43M3oiLz4mI3hhOwkJPC9nPiYjeGE7CQk8ZyBpZD0ic2hhcGU0NTMwLTEwIiB0cmFuc2Zvcm09InRyYW5zbGF0ZSg0LjU1NDU2LC00LjU1NDU2KSI+JiN4YTsJCQk8dGl0bGUgaWQ9InRpdGxlNDc1MTEiPlNoZWV0LjQ1MzA8L3RpdGxlPiYjeGE7CQkJPHBhdGggaWQ9InBhdGg0NzUxMyIgaW5rc2NhcGU6Y29ubmVjdG9yLWN1cnZhdHVyZT0iMCIgc3R5bGU9ImZpbGw6I0NBRDFEODsiIGQ9Ik0yMS42Myw0MS43M0gwdjEuMTRoMjEuNjMgICAgIGMwLjYzLDAsMS4xNC0wLjUyLDEuMTQtMS4xNHYtMS4xNEMyMi43Nyw0MS4yMiwyMi4yNiw0MS43MywyMS42Myw0MS43M3oiLz4mI3hhOwkJPC9nPiYjeGE7CTwvZz4mI3hhOzwvZz4mI3hhOzwvc3ZnPg==;rounded=0;shadow=1;glass=0;sketch=1;strokeWidth=2;fontSize=24;fontColor=#FFFFFF;" vertex="1" parent="Tbavl_EoWam0O7su7ffe-45">
          <mxGeometry x="17.110000000000014" width="65.78" height="74" as="geometry" />
        </mxCell>
        <mxCell id="Tbavl_EoWam0O7su7ffe-47" value="&lt;font style=&quot;font-size: 16px;&quot; color=&quot;#000000&quot;&gt;&lt;b&gt;L2 SST&lt;/b&gt;&lt;/font&gt;" style="text;html=1;strokeColor=none;fillColor=none;align=center;verticalAlign=middle;whiteSpace=wrap;rounded=0;shadow=1;glass=0;sketch=1;strokeWidth=2;fontSize=24;fontColor=#FFFFFF;" vertex="1" parent="Tbavl_EoWam0O7su7ffe-45">
          <mxGeometry y="32" width="90" height="30" as="geometry" />
        </mxCell>
        <mxCell id="Tbavl_EoWam0O7su7ffe-48" value="" style="group" vertex="1" connectable="0" parent="1">
          <mxGeometry x="700" y="549" width="90" height="74" as="geometry" />
        </mxCell>
        <mxCell id="Tbavl_EoWam0O7su7ffe-49" value="" style="shape=image;verticalLabelPosition=bottom;labelBackgroundColor=#ffffff;verticalAlign=top;aspect=fixed;imageAspect=0;image=data:image/svg+xml,PHN2ZyB4bWxuczpjYz0iaHR0cDovL2NyZWF0aXZlY29tbW9ucy5vcmcvbnMjIiB4bWxuczpkYz0iaHR0cDovL3B1cmwub3JnL2RjL2VsZW1lbnRzLzEuMS8iIHhtbG5zOmlua3NjYXBlPSJodHRwOi8vd3d3Lmlua3NjYXBlLm9yZy9uYW1lc3BhY2VzL2lua3NjYXBlIiB4bWxuczpyZGY9Imh0dHA6Ly93d3cudzMub3JnLzE5OTkvMDIvMjItcmRmLXN5bnRheC1ucyMiIHhtbG5zOnNvZGlwb2RpPSJodHRwOi8vc29kaXBvZGkuc291cmNlZm9yZ2UubmV0L0RURC9zb2RpcG9kaS0wLmR0ZCIgeG1sbnM6c3ZnPSJodHRwOi8vd3d3LnczLm9yZy8yMDAwL3N2ZyIgeG1sbnM9Imh0dHA6Ly93d3cudzMub3JnLzIwMDAvc3ZnIiB4bWxuczp4bGluaz0iaHR0cDovL3d3dy53My5vcmcvMTk5OS94bGluayIgdmVyc2lvbj0iMS4xIiBpZD0ic3ZnNDc1MTkiIGlua3NjYXBlOnZlcnNpb249IjAuOTIuMyAoMjQwNTU0NiwgMjAxOC0wMy0xMSkiIHNvZGlwb2RpOmRvY25hbWU9ImdlbmVyaWNfZmlsZV8xLnN2ZyIgeD0iMHB4IiB5PSIwcHgiIHZpZXdCb3g9IjAgMCAzMS44OCAzNi40NCIgc3R5bGU9ImVuYWJsZS1iYWNrZ3JvdW5kOm5ldyAwIDAgMzEuODggMzYuNDQ7IiB4bWw6c3BhY2U9InByZXNlcnZlIj4mI3hhOzxzb2RpcG9kaTpuYW1lZHZpZXcgYm9yZGVyY29sb3I9IiM2NjY2NjYiIGJvcmRlcm9wYWNpdHk9IjEiIGZpdC1tYXJnaW4tYm90dG9tPSIwIiBmaXQtbWFyZ2luLWxlZnQ9IjAiIGZpdC1tYXJnaW4tcmlnaHQ9IjAiIGZpdC1tYXJnaW4tdG9wPSIwIiBncmlkdG9sZXJhbmNlPSIxMCIgZ3VpZGV0b2xlcmFuY2U9IjEwIiBpZD0ibmFtZWR2aWV3NDc1MjEiIGlua3NjYXBlOmN1cnJlbnQtbGF5ZXI9InN2ZzQ3NTE5IiBpbmtzY2FwZTpjeD0iMTguMjE4MTc2IiBpbmtzY2FwZTpjeT0iMjEuNjAxMzQ4IiBpbmtzY2FwZTpwYWdlb3BhY2l0eT0iMCIgaW5rc2NhcGU6cGFnZXNoYWRvdz0iMiIgaW5rc2NhcGU6d2luZG93LWhlaWdodD0iMTAxNyIgaW5rc2NhcGU6d2luZG93LW1heGltaXplZD0iMSIgaW5rc2NhcGU6d2luZG93LXdpZHRoPSIxOTIwIiBpbmtzY2FwZTp3aW5kb3cteD0iLTgiIGlua3NjYXBlOndpbmRvdy15PSItOCIgaW5rc2NhcGU6em9vbT0iMTUuMTY4OTU5IiBvYmplY3R0b2xlcmFuY2U9IjEwIiBwYWdlY29sb3I9IiNmZmZmZmYiIHNob3dncmlkPSJmYWxzZSI+JiN4YTsJPC9zb2RpcG9kaTpuYW1lZHZpZXc+JiN4YTs8ZyBpZD0iZzQ3NTE3IiB0cmFuc2Zvcm09InRyYW5zbGF0ZSgtMTAuOTI4NjI5LC0xLjE5NDYzKSI+JiN4YTsJPHRpdGxlIGlkPSJ0aXRsZTQ3NDg3Ij5QYWdlLTE8L3RpdGxlPiYjeGE7CTxnIGlkPSJncm91cDQ1MjUtMSIgdHJhbnNmb3JtPSJ0cmFuc2xhdGUoMTAuOTI4NiwtNS4yMzUzNykiPiYjeGE7CQk8dGl0bGUgaWQ9InRpdGxlNDc0ODkiPkdlbmVyaWMgRmlsZSAjMTwvdGl0bGU+JiN4YTsJCTxnIGlkPSJzaGFwZTQ1MjYtMiIgdHJhbnNmb3JtPSJ0cmFuc2xhdGUoNC41NTQ1NikiPiYjeGE7CQkJPHRpdGxlIGlkPSJ0aXRsZTQ3NDkxIj5TaGVldC40NTI2PC90aXRsZT4mI3hhOwkJCTxwYXRoIGlkPSJwYXRoNDc0OTMiIGlua3NjYXBlOmNvbm5lY3Rvci1jdXJ2YXR1cmU9IjAiIHN0eWxlPSJmaWxsOiNFMkU1RTc7IiBkPSJNMi4yOCw2LjQzQzEuMDIsNi40MywwLDcuNDYsMCw4LjcxdjMxLjg4ICAgICBjMCwxLjI1LDEuMDIsMi4yOCwyLjI4LDIuMjhoMjIuNzdjMS4yNSwwLDIuMjgtMS4wMywyLjI4LTIuMjhWMTUuNTRsLTkuMTEtOS4xMUgyLjI4eiIvPiYjeGE7CQk8L2c+JiN4YTsJCTxnIGlkPSJzaGFwZTQ1MjctNCIgdHJhbnNmb3JtPSJ0cmFuc2xhdGUoMjIuNzcyOCwtMjcuMzI3NCkiPiYjeGE7CQkJPHRpdGxlIGlkPSJ0aXRsZTQ3NDk2Ij5TaGVldC40NTI3PC90aXRsZT4mI3hhOwkJCTxwYXRoIGlkPSJwYXRoNDc0OTgiIGlua3NjYXBlOmNvbm5lY3Rvci1jdXJ2YXR1cmU9IjAiIHN0eWxlPSJmaWxsOiNCMEI3QkQ7IiBkPSJNMi4yOCw0Mi44N2g2LjgzTDAsMzMuNzZ2Ni44MyAgICAgQzAsNDEuODQsMS4wMiw0Mi44NywyLjI4LDQyLjg3eiIvPiYjeGE7CQk8L2c+JiN4YTsJCTxnIGlkPSJzaGFwZTQ1MjgtNiIgdHJhbnNmb3JtPSJ0cmFuc2xhdGUoMjUuMDUwMSwtMjAuNDk1NSkiPiYjeGE7CQkJPHRpdGxlIGlkPSJ0aXRsZTQ3NTAxIj5TaGVldC40NTI4PC90aXRsZT4mI3hhOwkJCTxwYXRoIGlkPSJwYXRoNDc1MDMiIGlua3NjYXBlOmNvbm5lY3Rvci1jdXJ2YXR1cmU9IjAiIHN0eWxlPSJmaWxsOiNDQUQxRDg7IiBkPSJNNi44Myw0Mi44N0wwLDM2LjA0aDYuODNWNDIuODd6Ii8+JiN4YTsJCTwvZz4mI3hhOwkJPGcgaWQ9InNoYXBlNDUyOS04IiB0cmFuc2Zvcm09InRyYW5zbGF0ZSgwLC01LjY5MzIpIj4mI3hhOwkJCTx0aXRsZSBpZD0idGl0bGU0NzUwNiI+U2hlZXQuNDUyOTwvdGl0bGU+JiN4YTsJCQk8cGF0aCBpZD0icGF0aDQ3NTA4IiBpbmtzY2FwZTpjb25uZWN0b3ItY3VydmF0dXJlPSIwIiBzdHlsZT0iZmlsbDojOTc3N0E4OyIgZD0iTTI3LjMzLDQxLjczYzAsMC42Mi0wLjUyLDEuMTQtMS4xNCwxLjE0SDEuMTQgICAgIEMwLjUxLDQyLjg3LDAsNDIuMzUsMCw0MS43M1YzMC4zNGMwLTAuNjIsMC41MS0xLjE0LDEuMTQtMS4xNGgyNS4wNWMwLjYyLDAsMS4xNCwwLjUyLDEuMTQsMS4xNEwyNy4zMyw0MS43M3oiLz4mI3hhOwkJPC9nPiYjeGE7CQk8ZyBpZD0ic2hhcGU0NTMwLTEwIiB0cmFuc2Zvcm09InRyYW5zbGF0ZSg0LjU1NDU2LC00LjU1NDU2KSI+JiN4YTsJCQk8dGl0bGUgaWQ9InRpdGxlNDc1MTEiPlNoZWV0LjQ1MzA8L3RpdGxlPiYjeGE7CQkJPHBhdGggaWQ9InBhdGg0NzUxMyIgaW5rc2NhcGU6Y29ubmVjdG9yLWN1cnZhdHVyZT0iMCIgc3R5bGU9ImZpbGw6I0NBRDFEODsiIGQ9Ik0yMS42Myw0MS43M0gwdjEuMTRoMjEuNjMgICAgIGMwLjYzLDAsMS4xNC0wLjUyLDEuMTQtMS4xNHYtMS4xNEMyMi43Nyw0MS4yMiwyMi4yNiw0MS43MywyMS42Myw0MS43M3oiLz4mI3hhOwkJPC9nPiYjeGE7CTwvZz4mI3hhOzwvZz4mI3hhOzwvc3ZnPg==;rounded=0;shadow=1;glass=0;sketch=1;strokeWidth=2;fontSize=24;fontColor=#FFFFFF;" vertex="1" parent="Tbavl_EoWam0O7su7ffe-48">
          <mxGeometry x="17.110000000000014" width="65.78" height="74" as="geometry" />
        </mxCell>
        <mxCell id="Tbavl_EoWam0O7su7ffe-50" value="&lt;font style=&quot;font-size: 16px;&quot; color=&quot;#000000&quot;&gt;&lt;b&gt;L2 SST&lt;/b&gt;&lt;/font&gt;" style="text;html=1;strokeColor=none;fillColor=none;align=center;verticalAlign=middle;whiteSpace=wrap;rounded=0;shadow=1;glass=0;sketch=1;strokeWidth=2;fontSize=24;fontColor=#FFFFFF;" vertex="1" parent="Tbavl_EoWam0O7su7ffe-48">
          <mxGeometry y="32" width="90" height="30" as="geometry" />
        </mxCell>
        <mxCell id="Tbavl_EoWam0O7su7ffe-51" value="" style="group;sketch=0;" vertex="1" connectable="0" parent="1">
          <mxGeometry x="800" y="548" width="90" height="74" as="geometry" />
        </mxCell>
        <mxCell id="Tbavl_EoWam0O7su7ffe-52" value="" style="shape=image;verticalLabelPosition=bottom;labelBackgroundColor=#ffffff;verticalAlign=top;aspect=fixed;imageAspect=0;image=data:image/svg+xml,PHN2ZyB4bWxuczpjYz0iaHR0cDovL2NyZWF0aXZlY29tbW9ucy5vcmcvbnMjIiB4bWxuczpkYz0iaHR0cDovL3B1cmwub3JnL2RjL2VsZW1lbnRzLzEuMS8iIHhtbG5zOmlua3NjYXBlPSJodHRwOi8vd3d3Lmlua3NjYXBlLm9yZy9uYW1lc3BhY2VzL2lua3NjYXBlIiB4bWxuczpyZGY9Imh0dHA6Ly93d3cudzMub3JnLzE5OTkvMDIvMjItcmRmLXN5bnRheC1ucyMiIHhtbG5zOnNvZGlwb2RpPSJodHRwOi8vc29kaXBvZGkuc291cmNlZm9yZ2UubmV0L0RURC9zb2RpcG9kaS0wLmR0ZCIgeG1sbnM6c3ZnPSJodHRwOi8vd3d3LnczLm9yZy8yMDAwL3N2ZyIgeG1sbnM9Imh0dHA6Ly93d3cudzMub3JnLzIwMDAvc3ZnIiB4bWxuczp4bGluaz0iaHR0cDovL3d3dy53My5vcmcvMTk5OS94bGluayIgdmVyc2lvbj0iMS4xIiBpZD0ic3ZnNDc1MTkiIGlua3NjYXBlOnZlcnNpb249IjAuOTIuMyAoMjQwNTU0NiwgMjAxOC0wMy0xMSkiIHNvZGlwb2RpOmRvY25hbWU9ImdlbmVyaWNfZmlsZV8xLnN2ZyIgeD0iMHB4IiB5PSIwcHgiIHZpZXdCb3g9IjAgMCAzMS44OCAzNi40NCIgc3R5bGU9ImVuYWJsZS1iYWNrZ3JvdW5kOm5ldyAwIDAgMzEuODggMzYuNDQ7IiB4bWw6c3BhY2U9InByZXNlcnZlIj4mI3hhOzxzb2RpcG9kaTpuYW1lZHZpZXcgYm9yZGVyY29sb3I9IiM2NjY2NjYiIGJvcmRlcm9wYWNpdHk9IjEiIGZpdC1tYXJnaW4tYm90dG9tPSIwIiBmaXQtbWFyZ2luLWxlZnQ9IjAiIGZpdC1tYXJnaW4tcmlnaHQ9IjAiIGZpdC1tYXJnaW4tdG9wPSIwIiBncmlkdG9sZXJhbmNlPSIxMCIgZ3VpZGV0b2xlcmFuY2U9IjEwIiBpZD0ibmFtZWR2aWV3NDc1MjEiIGlua3NjYXBlOmN1cnJlbnQtbGF5ZXI9InN2ZzQ3NTE5IiBpbmtzY2FwZTpjeD0iMTguMjE4MTc2IiBpbmtzY2FwZTpjeT0iMjEuNjAxMzQ4IiBpbmtzY2FwZTpwYWdlb3BhY2l0eT0iMCIgaW5rc2NhcGU6cGFnZXNoYWRvdz0iMiIgaW5rc2NhcGU6d2luZG93LWhlaWdodD0iMTAxNyIgaW5rc2NhcGU6d2luZG93LW1heGltaXplZD0iMSIgaW5rc2NhcGU6d2luZG93LXdpZHRoPSIxOTIwIiBpbmtzY2FwZTp3aW5kb3cteD0iLTgiIGlua3NjYXBlOndpbmRvdy15PSItOCIgaW5rc2NhcGU6em9vbT0iMTUuMTY4OTU5IiBvYmplY3R0b2xlcmFuY2U9IjEwIiBwYWdlY29sb3I9IiNmZmZmZmYiIHNob3dncmlkPSJmYWxzZSI+JiN4YTsJPC9zb2RpcG9kaTpuYW1lZHZpZXc+JiN4YTs8ZyBpZD0iZzQ3NTE3IiB0cmFuc2Zvcm09InRyYW5zbGF0ZSgtMTAuOTI4NjI5LC0xLjE5NDYzKSI+JiN4YTsJPHRpdGxlIGlkPSJ0aXRsZTQ3NDg3Ij5QYWdlLTE8L3RpdGxlPiYjeGE7CTxnIGlkPSJncm91cDQ1MjUtMSIgdHJhbnNmb3JtPSJ0cmFuc2xhdGUoMTAuOTI4NiwtNS4yMzUzNykiPiYjeGE7CQk8dGl0bGUgaWQ9InRpdGxlNDc0ODkiPkdlbmVyaWMgRmlsZSAjMTwvdGl0bGU+JiN4YTsJCTxnIGlkPSJzaGFwZTQ1MjYtMiIgdHJhbnNmb3JtPSJ0cmFuc2xhdGUoNC41NTQ1NikiPiYjeGE7CQkJPHRpdGxlIGlkPSJ0aXRsZTQ3NDkxIj5TaGVldC40NTI2PC90aXRsZT4mI3hhOwkJCTxwYXRoIGlkPSJwYXRoNDc0OTMiIGlua3NjYXBlOmNvbm5lY3Rvci1jdXJ2YXR1cmU9IjAiIHN0eWxlPSJmaWxsOiNFMkU1RTc7IiBkPSJNMi4yOCw2LjQzQzEuMDIsNi40MywwLDcuNDYsMCw4LjcxdjMxLjg4ICAgICBjMCwxLjI1LDEuMDIsMi4yOCwyLjI4LDIuMjhoMjIuNzdjMS4yNSwwLDIuMjgtMS4wMywyLjI4LTIuMjhWMTUuNTRsLTkuMTEtOS4xMUgyLjI4eiIvPiYjeGE7CQk8L2c+JiN4YTsJCTxnIGlkPSJzaGFwZTQ1MjctNCIgdHJhbnNmb3JtPSJ0cmFuc2xhdGUoMjIuNzcyOCwtMjcuMzI3NCkiPiYjeGE7CQkJPHRpdGxlIGlkPSJ0aXRsZTQ3NDk2Ij5TaGVldC40NTI3PC90aXRsZT4mI3hhOwkJCTxwYXRoIGlkPSJwYXRoNDc0OTgiIGlua3NjYXBlOmNvbm5lY3Rvci1jdXJ2YXR1cmU9IjAiIHN0eWxlPSJmaWxsOiNCMEI3QkQ7IiBkPSJNMi4yOCw0Mi44N2g2LjgzTDAsMzMuNzZ2Ni44MyAgICAgQzAsNDEuODQsMS4wMiw0Mi44NywyLjI4LDQyLjg3eiIvPiYjeGE7CQk8L2c+JiN4YTsJCTxnIGlkPSJzaGFwZTQ1MjgtNiIgdHJhbnNmb3JtPSJ0cmFuc2xhdGUoMjUuMDUwMSwtMjAuNDk1NSkiPiYjeGE7CQkJPHRpdGxlIGlkPSJ0aXRsZTQ3NTAxIj5TaGVldC40NTI4PC90aXRsZT4mI3hhOwkJCTxwYXRoIGlkPSJwYXRoNDc1MDMiIGlua3NjYXBlOmNvbm5lY3Rvci1jdXJ2YXR1cmU9IjAiIHN0eWxlPSJmaWxsOiNDQUQxRDg7IiBkPSJNNi44Myw0Mi44N0wwLDM2LjA0aDYuODNWNDIuODd6Ii8+JiN4YTsJCTwvZz4mI3hhOwkJPGcgaWQ9InNoYXBlNDUyOS04IiB0cmFuc2Zvcm09InRyYW5zbGF0ZSgwLC01LjY5MzIpIj4mI3hhOwkJCTx0aXRsZSBpZD0idGl0bGU0NzUwNiI+U2hlZXQuNDUyOTwvdGl0bGU+JiN4YTsJCQk8cGF0aCBpZD0icGF0aDQ3NTA4IiBpbmtzY2FwZTpjb25uZWN0b3ItY3VydmF0dXJlPSIwIiBzdHlsZT0iZmlsbDojOTc3N0E4OyIgZD0iTTI3LjMzLDQxLjczYzAsMC42Mi0wLjUyLDEuMTQtMS4xNCwxLjE0SDEuMTQgICAgIEMwLjUxLDQyLjg3LDAsNDIuMzUsMCw0MS43M1YzMC4zNGMwLTAuNjIsMC41MS0xLjE0LDEuMTQtMS4xNGgyNS4wNWMwLjYyLDAsMS4xNCwwLjUyLDEuMTQsMS4xNEwyNy4zMyw0MS43M3oiLz4mI3hhOwkJPC9nPiYjeGE7CQk8ZyBpZD0ic2hhcGU0NTMwLTEwIiB0cmFuc2Zvcm09InRyYW5zbGF0ZSg0LjU1NDU2LC00LjU1NDU2KSI+JiN4YTsJCQk8dGl0bGUgaWQ9InRpdGxlNDc1MTEiPlNoZWV0LjQ1MzA8L3RpdGxlPiYjeGE7CQkJPHBhdGggaWQ9InBhdGg0NzUxMyIgaW5rc2NhcGU6Y29ubmVjdG9yLWN1cnZhdHVyZT0iMCIgc3R5bGU9ImZpbGw6I0NBRDFEODsiIGQ9Ik0yMS42Myw0MS43M0gwdjEuMTRoMjEuNjMgICAgIGMwLjYzLDAsMS4xNC0wLjUyLDEuMTQtMS4xNHYtMS4xNEMyMi43Nyw0MS4yMiwyMi4yNiw0MS43MywyMS42Myw0MS43M3oiLz4mI3hhOwkJPC9nPiYjeGE7CTwvZz4mI3hhOzwvZz4mI3hhOzwvc3ZnPg==;rounded=0;shadow=1;glass=0;sketch=1;strokeWidth=2;fontSize=24;fontColor=#FFFFFF;" vertex="1" parent="Tbavl_EoWam0O7su7ffe-51">
          <mxGeometry x="17.110000000000014" width="65.78" height="74" as="geometry" />
        </mxCell>
        <mxCell id="Tbavl_EoWam0O7su7ffe-53" value="&lt;font style=&quot;font-size: 16px;&quot; color=&quot;#000000&quot;&gt;&lt;b&gt;L2 SST&lt;/b&gt;&lt;/font&gt;" style="text;html=1;strokeColor=none;fillColor=none;align=center;verticalAlign=middle;whiteSpace=wrap;rounded=0;shadow=1;glass=0;sketch=1;strokeWidth=2;fontSize=24;fontColor=#FFFFFF;" vertex="1" parent="Tbavl_EoWam0O7su7ffe-51">
          <mxGeometry y="32" width="90" height="30" as="geometry" />
        </mxCell>
        <mxCell id="Tbavl_EoWam0O7su7ffe-54" value="" style="shape=image;html=1;verticalAlign=top;verticalLabelPosition=bottom;labelBackgroundColor=#ffffff;imageAspect=0;aspect=fixed;image=https://cdn0.iconfinder.com/data/icons/green-world-colored/80/recycling-recycle-loop-arrows-waste-128.png;rounded=0;shadow=1;glass=0;sketch=0;strokeWidth=2;fontSize=16;fontColor=#000000;" vertex="1" parent="1">
          <mxGeometry x="830" y="361" width="68" height="68" as="geometry" />
        </mxCell>
        <mxCell id="Tbavl_EoWam0O7su7ffe-55" value="&lt;b&gt;&lt;font style=&quot;font-size: 18px;&quot;&gt;Compacting&lt;/font&gt;&lt;/b&gt;" style="text;html=1;strokeColor=none;fillColor=none;align=center;verticalAlign=middle;whiteSpace=wrap;rounded=0;shadow=1;glass=0;sketch=0;strokeWidth=2;fontSize=16;fontColor=#000000;" vertex="1" parent="1">
          <mxGeometry x="834" y="427" width="60" height="30" as="geometry" />
        </mxCell>
        <mxCell id="Tbavl_EoWam0O7su7ffe-59" value="" style="shape=image;verticalLabelPosition=bottom;labelBackgroundColor=#ffffff;verticalAlign=top;aspect=fixed;imageAspect=0;image=data:image/svg+xml,PHN2ZyB4bWxuczpjYz0iaHR0cDovL2NyZWF0aXZlY29tbW9ucy5vcmcvbnMjIiB4bWxuczpkYz0iaHR0cDovL3B1cmwub3JnL2RjL2VsZW1lbnRzLzEuMS8iIHhtbG5zOmlua3NjYXBlPSJodHRwOi8vd3d3Lmlua3NjYXBlLm9yZy9uYW1lc3BhY2VzL2lua3NjYXBlIiB4bWxuczpyZGY9Imh0dHA6Ly93d3cudzMub3JnLzE5OTkvMDIvMjItcmRmLXN5bnRheC1ucyMiIHhtbG5zOnNvZGlwb2RpPSJodHRwOi8vc29kaXBvZGkuc291cmNlZm9yZ2UubmV0L0RURC9zb2RpcG9kaS0wLmR0ZCIgeG1sbnM6c3ZnPSJodHRwOi8vd3d3LnczLm9yZy8yMDAwL3N2ZyIgeG1sbnM9Imh0dHA6Ly93d3cudzMub3JnLzIwMDAvc3ZnIiB4bWxuczp4bGluaz0iaHR0cDovL3d3dy53My5vcmcvMTk5OS94bGluayIgdmVyc2lvbj0iMS4xIiBpZD0ic3ZnNDcwMjkiIGlua3NjYXBlOnZlcnNpb249IjAuOTIuMyAoMjQwNTU0NiwgMjAxOC0wMy0xMSkiIHNvZGlwb2RpOmRvY25hbWU9ImZvcm0uc3ZnIiB4PSIwcHgiIHk9IjBweCIgdmlld0JveD0iMCAwIDM1Ljk1IDQ3LjkzIiBzdHlsZT0iZW5hYmxlLWJhY2tncm91bmQ6bmV3IDAgMCAzNS45NSA0Ny45MzsiIHhtbDpzcGFjZT0icHJlc2VydmUiPiYjeGE7PHNvZGlwb2RpOm5hbWVkdmlldyBib3JkZXJjb2xvcj0iIzY2NjY2NiIgYm9yZGVyb3BhY2l0eT0iMSIgZml0LW1hcmdpbi1ib3R0b209IjAiIGZpdC1tYXJnaW4tbGVmdD0iMCIgZml0LW1hcmdpbi1yaWdodD0iMCIgZml0LW1hcmdpbi10b3A9IjAiIGdyaWR0b2xlcmFuY2U9IjEwIiBndWlkZXRvbGVyYW5jZT0iMTAiIGlkPSJuYW1lZHZpZXc0NzAzMSIgaW5rc2NhcGU6Y3VycmVudC1sYXllcj0ic3ZnNDcwMjkiIGlua3NjYXBlOmN4PSIyMy45NjU0NTEiIGlua3NjYXBlOmN5PSIzMS45NTM3MSIgaW5rc2NhcGU6cGFnZW9wYWNpdHk9IjAiIGlua3NjYXBlOnBhZ2VzaGFkb3c9IjIiIGlua3NjYXBlOndpbmRvdy1oZWlnaHQ9IjEwMTciIGlua3NjYXBlOndpbmRvdy1tYXhpbWl6ZWQ9IjEiIGlua3NjYXBlOndpbmRvdy13aWR0aD0iMTkyMCIgaW5rc2NhcGU6d2luZG93LXg9Ii04IiBpbmtzY2FwZTp3aW5kb3cteT0iLTgiIGlua3NjYXBlOnpvb209IjEzLjE1NTEzNCIgb2JqZWN0dG9sZXJhbmNlPSIxMCIgcGFnZWNvbG9yPSIjZmZmZmZmIiBzaG93Z3JpZD0iZmFsc2UiPiYjeGE7CTwvc29kaXBvZGk6bmFtZWR2aWV3PiYjeGE7PGcgaWQ9Imc0NzAyNyIgdHJhbnNmb3JtPSJ0cmFuc2xhdGUoLTAuNzUwMDUzMTIsLTAuNzQ1NTAwNjYpIj4mI3hhOwk8dGl0bGUgaWQ9InRpdGxlNDY5NTIiPlBhZ2UtMTwvdGl0bGU+JiN4YTsJPGcgaWQ9Imdyb3VwNDY1NS0xIiB0cmFuc2Zvcm09InRyYW5zbGF0ZSgxLjUsLTEuNSkiPiYjeGE7CQk8dGl0bGUgaWQ9InRpdGxlNDY5NTQiPkZvcm08L3RpdGxlPiYjeGE7CQk8ZyBpZD0iZ3JvdXA0NjU2LTIiPiYjeGE7CQkJPHRpdGxlIGlkPSJ0aXRsZTQ2OTU2Ij5GaWxlPC90aXRsZT4mI3hhOwkJCTxnIGlkPSJzaGFwZTQ2NTctMyI+JiN4YTsJCQkJPHRpdGxlIGlkPSJ0aXRsZTQ2OTU4Ij5wb2x5Z29uMTU5MTI8L3RpdGxlPiYjeGE7CQkJCTxwYXRoIGlkPSJwYXRoNDY5NjAiIGlua3NjYXBlOmNvbm5lY3Rvci1jdXJ2YXR1cmU9IjAiIHN0eWxlPSJmaWxsOiNGRkZGRkY7IiBkPSJNMzUuMTksNDkuNDNIMFYyLjI1aDE5LjY5bDE1LjUsMTQuNzYgICAgICBMMzUuMTksNDkuNDN6Ii8+JiN4YTsJCQk8L2c+JiN4YTsJCQk8ZyBpZD0ic2hhcGU0NjU4LTUiIHRyYW5zZm9ybT0idHJhbnNsYXRlKDE5LjQ2OTUsLTMyLjE5OTUpIj4mI3hhOwkJCQk8dGl0bGUgaWQ9InRpdGxlNDY5NjMiPnBvbHlnb24xNTkxNDwvdGl0bGU+JiN4YTsJCQkJPHBhdGggaWQ9InBhdGg0Njk2NSIgaW5rc2NhcGU6Y29ubmVjdG9yLWN1cnZhdHVyZT0iMCIgc3R5bGU9ImZpbGw6IzU1RDJGNjsiIGQ9Ik0xNS43Myw0OS40M0gwVjM0LjQ1TDE1LjczLDQ5LjQzeiIvPiYjeGE7CQkJPC9nPiYjeGE7CQkJPGcgaWQ9InNoYXBlNDY1OS03Ij4mI3hhOwkJCQk8dGl0bGUgaWQ9InRpdGxlNDY5NjgiPnBhdGgxNTkxNjwvdGl0bGU+JiN4YTsJCQkJJiN4YTsJCQkJCTxwYXRoIGlkPSJwYXRoNDY5NzAiIGlua3NjYXBlOmNvbm5lY3Rvci1jdXJ2YXR1cmU9IjAiIHN0eWxlPSJmaWxsOm5vbmU7c3Ryb2tlOiM1NTZBOEE7c3Ryb2tlLXdpZHRoOjEuNTtzdHJva2UtbWl0ZXJsaW1pdDozOyIgZD0iICAgICAgTTE5Ljc1LDNIMS4wOUMwLjcsMywwLDIuOTUsMCwzLjM1djQ0Ljk4YzAuMTMsMC41NCwwLjU1LDAuOTYsMS4wOSwxLjFIMzQuMWMwLjQsMCwwLjM1LTAuNywwLjM1LTEuMXYtMzEuMkwxOS43NSwzeiIvPiYjeGE7CQkJPC9nPiYjeGE7CQkJPGcgaWQ9InNoYXBlNDY2MC05IiB0cmFuc2Zvcm09InRyYW5zbGF0ZSgwLjc0ODgyNSwtMC43NDg4MjUpIj4mI3hhOwkJCQk8dGl0bGUgaWQ9InRpdGxlNDY5NzMiPnJlY3QxNTkxODwvdGl0bGU+JiN4YTsJCQkJPHJlY3QgaWQ9InJlY3Q0Njk3NSIgeD0iMCIgeT0iNC41IiBzdHlsZT0iZmlsbDojRTVFNUU1OyIgd2lkdGg9IjExLjk4IiBoZWlnaHQ9IjQ0LjkzIi8+JiN4YTsJCQk8L2c+JiN4YTsJCQk8ZyBpZD0ic2hhcGU0NjYxLTExIiB0cmFuc2Zvcm09InRyYW5zbGF0ZSgxOC43MjA2LC0zMS40NTA3KSI+JiN4YTsJCQkJPHRpdGxlIGlkPSJ0aXRsZTQ2OTc4Ij5wb2x5bGluZTE1OTIwPC90aXRsZT4mI3hhOwkJCQk8cGF0aCBpZD0icGF0aDQ2OTgwIiBpbmtzY2FwZTpjb25uZWN0b3ItY3VydmF0dXJlPSIwIiBzdHlsZT0iZmlsbDpub25lOyIgZD0iTTAsMzQuNDV2MTQuOThoMTUuNzNMMCwzNC40NXoiLz4mI3hhOwkJCQkmI3hhOwkJCQkJPHBhdGggaWQ9InBhdGg0Njk4MiIgaW5rc2NhcGU6Y29ubmVjdG9yLWN1cnZhdHVyZT0iMCIgc3R5bGU9ImZpbGw6bm9uZTtzdHJva2U6IzU1NkE4QTtzdHJva2Utd2lkdGg6MS41O3N0cm9rZS1taXRlcmxpbWl0OjM7IiBkPSIgICAgICBNMCwzNC40NXYxNC45OGgxNS43MyIvPiYjeGE7CQkJPC9nPiYjeGE7CQkJPGcgaWQ9InNoYXBlNDY2Mi0xNCIgdHJhbnNmb3JtPSJ0cmFuc2xhdGUoOS42ODI5NywtMzAuNzAxOCkiPiYjeGE7CQkJCTx0aXRsZSBpZD0idGl0bGU0Njk4NSI+bGluZTE1OTIyPC90aXRsZT4mI3hhOwkJCQkmI3hhOwkJCQkJPHBhdGggaWQ9InBhdGg0Njk4NyIgaW5rc2NhcGU6Y29ubmVjdG9yLWN1cnZhdHVyZT0iMCIgc3R5bGU9ImZpbGw6bm9uZTtzdHJva2U6I0E3QTlBQztzdHJva2Utd2lkdGg6MS41O3N0cm9rZS1taXRlcmxpbWl0OjM7IiBkPSIgICAgICBNMCw0OS40M2g1LjI5Ii8+JiN4YTsJCQk8L2c+JiN4YTsJCQk8ZyBpZD0ic2hhcGU0NjYzLTE3IiB0cmFuc2Zvcm09InRyYW5zbGF0ZSg5LjY4Mjk2LC0yMy45NjI0KSI+JiN4YTsJCQkJPHRpdGxlIGlkPSJ0aXRsZTQ2OTkwIj5saW5lMTU5MjQ8L3RpdGxlPiYjeGE7CQkJCSYjeGE7CQkJCQk8cGF0aCBpZD0icGF0aDQ2OTkyIiBpbmtzY2FwZTpjb25uZWN0b3ItY3VydmF0dXJlPSIwIiBzdHlsZT0iZmlsbDpub25lO3N0cm9rZTojQTdBOUFDO3N0cm9rZS13aWR0aDoxLjU7c3Ryb2tlLW1pdGVybGltaXQ6MzsiIGQ9IiAgICAgIE0wLDQ5LjQzaDE5LjUyIi8+JiN4YTsJCQk8L2c+JiN4YTsJCQk8ZyBpZD0ic2hhcGU0NjY0LTIwIiB0cmFuc2Zvcm09InRyYW5zbGF0ZSg5LjY4Mjk2LC0xNy4yMjMpIj4mI3hhOwkJCQk8dGl0bGUgaWQ9InRpdGxlNDY5OTUiPmxpbmUxNTkyNjwvdGl0bGU+JiN4YTsJCQkJJiN4YTsJCQkJCTxwYXRoIGlkPSJwYXRoNDY5OTciIGlua3NjYXBlOmNvbm5lY3Rvci1jdXJ2YXR1cmU9IjAiIHN0eWxlPSJmaWxsOm5vbmU7c3Ryb2tlOiNBN0E5QUM7c3Ryb2tlLXdpZHRoOjEuNTtzdHJva2UtbWl0ZXJsaW1pdDozOyIgZD0iICAgICAgTTAsNDkuNDNoMTkuNTIiLz4mI3hhOwkJCTwvZz4mI3hhOwkJCTxnIGlkPSJzaGFwZTQ2NjUtMjMiIHRyYW5zZm9ybT0idHJhbnNsYXRlKDkuNjgyOTYsLTEwLjQ4MzYpIj4mI3hhOwkJCQk8dGl0bGUgaWQ9InRpdGxlNDcwMDAiPmxpbmUxNTkyODwvdGl0bGU+JiN4YTsJCQkJJiN4YTsJCQkJCTxwYXRoIGlkPSJwYXRoNDcwMDIiIGlua3NjYXBlOmNvbm5lY3Rvci1jdXJ2YXR1cmU9IjAiIHN0eWxlPSJmaWxsOm5vbmU7c3Ryb2tlOiNBN0E5QUM7c3Ryb2tlLXdpZHRoOjEuNTtzdHJva2UtbWl0ZXJsaW1pdDozOyIgZD0iICAgICAgTTAsNDkuNDNoMTkuNTIiLz4mI3hhOwkJCTwvZz4mI3hhOwkJPC9nPiYjeGE7CQk8ZyBpZD0ic2hhcGU0NjY2LTI2IiB0cmFuc2Zvcm09InRyYW5zbGF0ZSgzLjM0MjMxLC0yNy41NjY3KSI+JiN4YTsJCQk8dGl0bGUgaWQ9InRpdGxlNDcwMDYiPlNoZWV0LjQ2NjY8L3RpdGxlPiYjeGE7CQkJPHBhdGggaWQ9InBhdGg0NzAwOCIgaW5rc2NhcGU6Y29ubmVjdG9yLWN1cnZhdHVyZT0iMCIgc3R5bGU9ImZpbGw6IzU1NkE4QTsiIGQ9Ik0wLjk0LDQ3Ljgzdi0wLjJjMC0wLjI5LDAuMDYtMC41MSwwLjEyLTAuNyAgICAgYzAuMDktMC4xNiwwLjI3LTAuMzcsMC40OC0wLjU1YzAuMzItMC4yOSwwLjUxLTAuNDcsMC42MS0wLjYyYzAuMDgtMC4xNiwwLjEyLTAuMywwLjEyLTAuNDljMC0wLjI0LTAuMDgtMC40MS0wLjIyLTAuNTUgICAgIGMtMC4xNy0wLjE2LTAuMzktMC4yLTAuNjgtMC4yYy0wLjIsMC0wLjM3LDAuMDItMC41MywwLjA2Yy0wLjE4LDAuMDYtMC4zOSwwLjE0LTAuNjEsMC4yNkwwLDQ0LjM3ICAgICBjMC40My0wLjI0LDAuOTItMC4zNSwxLjQxLTAuMzVjMC40MywwLDAuODIsMC4xMywxLjA3LDAuMzVjMC4yNiwwLjI1LDAuMzksMC41NiwwLjM5LDAuOTZjMCwwLjE3LTAuMDIsMC4zMy0wLjA5LDAuNDYgICAgIGMtMC4wNCwwLjEyLTAuMTIsMC4yNi0wLjIsMC4zOGMtMC4wOCwwLjEzLTAuMzEsMC4zMS0wLjU5LDAuNTZjLTAuMjUsMC4yLTAuMzcsMC4zOS0wLjQ1LDAuNTFjLTAuMDksMC4xNC0wLjEzLDAuMzUtMC4xMywwLjU1ICAgICB2MC4xMkgwLjk2di0wLjA4TDAuOTQsNDcuODN6IE0wLjc2LDQ4LjkyYzAtMC4zNSwwLjE2LTAuNDksMC40MS0wLjQ5YzAuMTYsMCwwLjI2LDAuMDQsMC4zNCwwLjEyYzAuMDcsMC4wOCwwLjEzLDAuMiwwLjEzLDAuMzkgICAgIGMwLDAuMTQtMC4wNiwwLjI4LTAuMTMsMC4zNWMtMC4wOCwwLjA4LTAuMTgsMC4xNC0wLjM0LDAuMTRjLTAuMTMsMC0wLjIzLTAuMDYtMC4zMS0wLjE0QzAuODIsNDkuMTYsMC43Niw0OS4wOCwwLjc2LDQ4LjkyeiIvPiYjeGE7CQk8L2c+JiN4YTsJCTxnIGlkPSJzaGFwZTQ2NjctMjgiIHRyYW5zZm9ybT0idHJhbnNsYXRlKDMuMzQyMzEsLTIxLjExNzgpIj4mI3hhOwkJCTx0aXRsZSBpZD0idGl0bGU0NzAxMSI+U2hlZXQuNDY2NzwvdGl0bGU+JiN4YTsJCQk8cGF0aCBpZD0icGF0aDQ3MDEzIiBpbmtzY2FwZTpjb25uZWN0b3ItY3VydmF0dXJlPSIwIiBzdHlsZT0iZmlsbDojNTU2QThBOyIgZD0iTTAuOTQsNDcuODN2LTAuMmMwLTAuMjksMC4wNi0wLjUxLDAuMTItMC43ICAgICBjMC4wOS0wLjE2LDAuMjctMC4zNywwLjQ4LTAuNTVjMC4zMi0wLjI5LDAuNTEtMC40NywwLjYxLTAuNjJjMC4wOC0wLjE2LDAuMTItMC4zLDAuMTItMC40OWMwLTAuMjQtMC4wOC0wLjQxLTAuMjItMC41NSAgICAgYy0wLjE3LTAuMTYtMC4zOS0wLjItMC42OC0wLjJjLTAuMiwwLTAuMzcsMC4wMi0wLjUzLDAuMDZjLTAuMTgsMC4wNi0wLjM5LDAuMTQtMC42MSwwLjI2TDAsNDQuMzcgICAgIGMwLjQzLTAuMjQsMC45Mi0wLjM1LDEuNDEtMC4zNWMwLjQzLDAsMC44MiwwLjEzLDEuMDcsMC4zNWMwLjI2LDAuMjUsMC4zOSwwLjU2LDAuMzksMC45NmMwLDAuMTctMC4wMiwwLjMzLTAuMDksMC40NiAgICAgYy0wLjA0LDAuMTItMC4xMiwwLjI2LTAuMiwwLjM4Yy0wLjA4LDAuMTMtMC4zMSwwLjMxLTAuNTksMC41NmMtMC4yNSwwLjItMC4zNywwLjM5LTAuNDUsMC41MWMtMC4wOSwwLjE0LTAuMTMsMC4zNS0wLjEzLDAuNTUgICAgIHYwLjEySDAuOTZ2LTAuMDhMMC45NCw0Ny44M3ogTTAuNzYsNDguOTJjMC0wLjM1LDAuMTYtMC40OSwwLjQxLTAuNDljMC4xNiwwLDAuMjYsMC4wNCwwLjM0LDAuMTJjMC4wNywwLjA4LDAuMTMsMC4yLDAuMTMsMC4zOSAgICAgYzAsMC4xNC0wLjA2LDAuMjgtMC4xMywwLjM1Yy0wLjA4LDAuMDgtMC4xOCwwLjE0LTAuMzQsMC4xNGMtMC4xMywwLTAuMjMtMC4wNi0wLjMxLTAuMTRDMC44Miw0OS4xNiwwLjc2LDQ5LjA4LDAuNzYsNDguOTJ6Ii8+JiN4YTsJCTwvZz4mI3hhOwkJPGcgaWQ9InNoYXBlNDY2OC0zMCIgdHJhbnNmb3JtPSJ0cmFuc2xhdGUoMy4xOTMxMiwtMTQuODg1NCkiPiYjeGE7CQkJPHRpdGxlIGlkPSJ0aXRsZTQ3MDE2Ij5TaGVldC40NjY4PC90aXRsZT4mI3hhOwkJCTxwYXRoIGlkPSJwYXRoNDcwMTgiIGlua3NjYXBlOmNvbm5lY3Rvci1jdXJ2YXR1cmU9IjAiIHN0eWxlPSJmaWxsOiM1NTZBOEE7IiBkPSJNMC45NCw0Ny44M3YtMC4yYzAtMC4yOSwwLjA2LTAuNTEsMC4xMi0wLjcgICAgIGMwLjA5LTAuMTYsMC4yNy0wLjM3LDAuNDgtMC41NWMwLjMyLTAuMjksMC41MS0wLjQ3LDAuNjEtMC42MmMwLjA4LTAuMTYsMC4xMi0wLjMsMC4xMi0wLjQ5YzAtMC4yNC0wLjA4LTAuNDEtMC4yMi0wLjU1ICAgICBjLTAuMTctMC4xNi0wLjM5LTAuMi0wLjY4LTAuMmMtMC4yLDAtMC4zNywwLjAyLTAuNTMsMC4wNmMtMC4xOCwwLjA2LTAuMzksMC4xNC0wLjYxLDAuMjZMMCw0NC4zNyAgICAgYzAuNDMtMC4yNCwwLjkyLTAuMzUsMS40MS0wLjM1YzAuNDMsMCwwLjgyLDAuMTMsMS4wNywwLjM1YzAuMjYsMC4yNSwwLjM5LDAuNTYsMC4zOSwwLjk2YzAsMC4xNy0wLjAyLDAuMzMtMC4wOSwwLjQ2ICAgICBjLTAuMDQsMC4xMi0wLjEyLDAuMjYtMC4yLDAuMzhjLTAuMDgsMC4xMy0wLjMxLDAuMzEtMC41OSwwLjU2Yy0wLjI1LDAuMi0wLjM3LDAuMzktMC40NSwwLjUxYy0wLjA5LDAuMTQtMC4xMywwLjM1LTAuMTMsMC41NSAgICAgdjAuMTJIMC45NnYtMC4wOEwwLjk0LDQ3LjgzeiBNMC43Niw0OC45MmMwLTAuMzUsMC4xNi0wLjQ5LDAuNDEtMC40OWMwLjE2LDAsMC4yNiwwLjA0LDAuMzQsMC4xMmMwLjA3LDAuMDgsMC4xMywwLjIsMC4xMywwLjM5ICAgICBjMCwwLjE0LTAuMDYsMC4yOC0wLjEzLDAuMzVjLTAuMDgsMC4wOC0wLjE4LDAuMTQtMC4zNCwwLjE0Yy0wLjEzLDAtMC4yMy0wLjA2LTAuMzEtMC4xNEMwLjgyLDQ5LjE2LDAuNzYsNDkuMDgsMC43Niw0OC45MnoiLz4mI3hhOwkJPC9nPiYjeGE7CQk8ZyBpZD0ic2hhcGU0NjY5LTMyIiB0cmFuc2Zvcm09InRyYW5zbGF0ZSgzLjE5MzEyLC04LjY5Mzk2KSI+JiN4YTsJCQk8dGl0bGUgaWQ9InRpdGxlNDcwMjEiPlNoZWV0LjQ2Njk8L3RpdGxlPiYjeGE7CQkJPHBhdGggaWQ9InBhdGg0NzAyMyIgaW5rc2NhcGU6Y29ubmVjdG9yLWN1cnZhdHVyZT0iMCIgc3R5bGU9ImZpbGw6IzU1NkE4QTsiIGQ9Ik0wLjk0LDQ3Ljgzdi0wLjJjMC0wLjI5LDAuMDYtMC41MSwwLjEyLTAuNyAgICAgYzAuMDktMC4xNiwwLjI3LTAuMzcsMC40OC0wLjU1YzAuMzItMC4yOSwwLjUxLTAuNDcsMC42MS0wLjYyYzAuMDgtMC4xNiwwLjEyLTAuMywwLjEyLTAuNDljMC0wLjI0LTAuMDgtMC40MS0wLjIyLTAuNTUgICAgIGMtMC4xNy0wLjE2LTAuMzktMC4yLTAuNjgtMC4yYy0wLjIsMC0wLjM3LDAuMDItMC41MywwLjA2Yy0wLjE4LDAuMDYtMC4zOSwwLjE0LTAuNjEsMC4yNkwwLDQ0LjM3ICAgICBjMC40My0wLjI0LDAuOTItMC4zNSwxLjQxLTAuMzVjMC40MywwLDAuODIsMC4xMywxLjA3LDAuMzVjMC4yNiwwLjI1LDAuMzksMC41NiwwLjM5LDAuOTZjMCwwLjE3LTAuMDIsMC4zMy0wLjA5LDAuNDYgICAgIGMtMC4wNCwwLjEyLTAuMTIsMC4yNi0wLjIsMC4zOGMtMC4wOCwwLjEzLTAuMzEsMC4zMS0wLjU5LDAuNTZjLTAuMjUsMC4yLTAuMzcsMC4zOS0wLjQ1LDAuNTFjLTAuMDksMC4xNC0wLjEzLDAuMzUtMC4xMywwLjU1ICAgICB2MC4xMkgwLjk2di0wLjA4TDAuOTQsNDcuODN6IE0wLjc2LDQ4LjkyYzAtMC4zNSwwLjE2LTAuNDksMC40MS0wLjQ5YzAuMTYsMCwwLjI2LDAuMDQsMC4zNCwwLjEyYzAuMDcsMC4wOCwwLjEzLDAuMiwwLjEzLDAuMzkgICAgIGMwLDAuMTQtMC4wNiwwLjI4LTAuMTMsMC4zNWMtMC4wOCwwLjA4LTAuMTgsMC4xNC0wLjM0LDAuMTRjLTAuMTMsMC0wLjIzLTAuMDYtMC4zMS0wLjE0QzAuODIsNDkuMTYsMC43Niw0OS4wOCwwLjc2LDQ4LjkyeiIvPiYjeGE7CQk8L2c+JiN4YTsJPC9nPiYjeGE7PC9nPiYjeGE7PC9zdmc+;rounded=0;shadow=1;glass=0;sketch=0;strokeWidth=2;fontSize=16;fontColor=#000000;" vertex="1" parent="1">
          <mxGeometry x="722" y="205" width="60" height="80" as="geometry" />
        </mxCell>
        <mxCell id="Tbavl_EoWam0O7su7ffe-60" value="" style="shape=image;verticalLabelPosition=bottom;labelBackgroundColor=#ffffff;verticalAlign=top;aspect=fixed;imageAspect=0;image=data:image/svg+xml,PHN2ZyB4bWxuczpjYz0iaHR0cDovL2NyZWF0aXZlY29tbW9ucy5vcmcvbnMjIiB4bWxuczpkYz0iaHR0cDovL3B1cmwub3JnL2RjL2VsZW1lbnRzLzEuMS8iIHhtbG5zOmlua3NjYXBlPSJodHRwOi8vd3d3Lmlua3NjYXBlLm9yZy9uYW1lc3BhY2VzL2lua3NjYXBlIiB4bWxuczpyZGY9Imh0dHA6Ly93d3cudzMub3JnLzE5OTkvMDIvMjItcmRmLXN5bnRheC1ucyMiIHhtbG5zOnNvZGlwb2RpPSJodHRwOi8vc29kaXBvZGkuc291cmNlZm9yZ2UubmV0L0RURC9zb2RpcG9kaS0wLmR0ZCIgeG1sbnM6c3ZnPSJodHRwOi8vd3d3LnczLm9yZy8yMDAwL3N2ZyIgeG1sbnM9Imh0dHA6Ly93d3cudzMub3JnLzIwMDAvc3ZnIiB4bWxuczp4bGluaz0iaHR0cDovL3d3dy53My5vcmcvMTk5OS94bGluayIgdmVyc2lvbj0iMS4xIiBpZD0ic3ZnNDcwMjkiIGlua3NjYXBlOnZlcnNpb249IjAuOTIuMyAoMjQwNTU0NiwgMjAxOC0wMy0xMSkiIHNvZGlwb2RpOmRvY25hbWU9ImZvcm0uc3ZnIiB4PSIwcHgiIHk9IjBweCIgdmlld0JveD0iMCAwIDM1Ljk1IDQ3LjkzIiBzdHlsZT0iZW5hYmxlLWJhY2tncm91bmQ6bmV3IDAgMCAzNS45NSA0Ny45MzsiIHhtbDpzcGFjZT0icHJlc2VydmUiPiYjeGE7PHNvZGlwb2RpOm5hbWVkdmlldyBib3JkZXJjb2xvcj0iIzY2NjY2NiIgYm9yZGVyb3BhY2l0eT0iMSIgZml0LW1hcmdpbi1ib3R0b209IjAiIGZpdC1tYXJnaW4tbGVmdD0iMCIgZml0LW1hcmdpbi1yaWdodD0iMCIgZml0LW1hcmdpbi10b3A9IjAiIGdyaWR0b2xlcmFuY2U9IjEwIiBndWlkZXRvbGVyYW5jZT0iMTAiIGlkPSJuYW1lZHZpZXc0NzAzMSIgaW5rc2NhcGU6Y3VycmVudC1sYXllcj0ic3ZnNDcwMjkiIGlua3NjYXBlOmN4PSIyMy45NjU0NTEiIGlua3NjYXBlOmN5PSIzMS45NTM3MSIgaW5rc2NhcGU6cGFnZW9wYWNpdHk9IjAiIGlua3NjYXBlOnBhZ2VzaGFkb3c9IjIiIGlua3NjYXBlOndpbmRvdy1oZWlnaHQ9IjEwMTciIGlua3NjYXBlOndpbmRvdy1tYXhpbWl6ZWQ9IjEiIGlua3NjYXBlOndpbmRvdy13aWR0aD0iMTkyMCIgaW5rc2NhcGU6d2luZG93LXg9Ii04IiBpbmtzY2FwZTp3aW5kb3cteT0iLTgiIGlua3NjYXBlOnpvb209IjEzLjE1NTEzNCIgb2JqZWN0dG9sZXJhbmNlPSIxMCIgcGFnZWNvbG9yPSIjZmZmZmZmIiBzaG93Z3JpZD0iZmFsc2UiPiYjeGE7CTwvc29kaXBvZGk6bmFtZWR2aWV3PiYjeGE7PGcgaWQ9Imc0NzAyNyIgdHJhbnNmb3JtPSJ0cmFuc2xhdGUoLTAuNzUwMDUzMTIsLTAuNzQ1NTAwNjYpIj4mI3hhOwk8dGl0bGUgaWQ9InRpdGxlNDY5NTIiPlBhZ2UtMTwvdGl0bGU+JiN4YTsJPGcgaWQ9Imdyb3VwNDY1NS0xIiB0cmFuc2Zvcm09InRyYW5zbGF0ZSgxLjUsLTEuNSkiPiYjeGE7CQk8dGl0bGUgaWQ9InRpdGxlNDY5NTQiPkZvcm08L3RpdGxlPiYjeGE7CQk8ZyBpZD0iZ3JvdXA0NjU2LTIiPiYjeGE7CQkJPHRpdGxlIGlkPSJ0aXRsZTQ2OTU2Ij5GaWxlPC90aXRsZT4mI3hhOwkJCTxnIGlkPSJzaGFwZTQ2NTctMyI+JiN4YTsJCQkJPHRpdGxlIGlkPSJ0aXRsZTQ2OTU4Ij5wb2x5Z29uMTU5MTI8L3RpdGxlPiYjeGE7CQkJCTxwYXRoIGlkPSJwYXRoNDY5NjAiIGlua3NjYXBlOmNvbm5lY3Rvci1jdXJ2YXR1cmU9IjAiIHN0eWxlPSJmaWxsOiNGRkZGRkY7IiBkPSJNMzUuMTksNDkuNDNIMFYyLjI1aDE5LjY5bDE1LjUsMTQuNzYgICAgICBMMzUuMTksNDkuNDN6Ii8+JiN4YTsJCQk8L2c+JiN4YTsJCQk8ZyBpZD0ic2hhcGU0NjU4LTUiIHRyYW5zZm9ybT0idHJhbnNsYXRlKDE5LjQ2OTUsLTMyLjE5OTUpIj4mI3hhOwkJCQk8dGl0bGUgaWQ9InRpdGxlNDY5NjMiPnBvbHlnb24xNTkxNDwvdGl0bGU+JiN4YTsJCQkJPHBhdGggaWQ9InBhdGg0Njk2NSIgaW5rc2NhcGU6Y29ubmVjdG9yLWN1cnZhdHVyZT0iMCIgc3R5bGU9ImZpbGw6IzU1RDJGNjsiIGQ9Ik0xNS43Myw0OS40M0gwVjM0LjQ1TDE1LjczLDQ5LjQzeiIvPiYjeGE7CQkJPC9nPiYjeGE7CQkJPGcgaWQ9InNoYXBlNDY1OS03Ij4mI3hhOwkJCQk8dGl0bGUgaWQ9InRpdGxlNDY5NjgiPnBhdGgxNTkxNjwvdGl0bGU+JiN4YTsJCQkJJiN4YTsJCQkJCTxwYXRoIGlkPSJwYXRoNDY5NzAiIGlua3NjYXBlOmNvbm5lY3Rvci1jdXJ2YXR1cmU9IjAiIHN0eWxlPSJmaWxsOm5vbmU7c3Ryb2tlOiM1NTZBOEE7c3Ryb2tlLXdpZHRoOjEuNTtzdHJva2UtbWl0ZXJsaW1pdDozOyIgZD0iICAgICAgTTE5Ljc1LDNIMS4wOUMwLjcsMywwLDIuOTUsMCwzLjM1djQ0Ljk4YzAuMTMsMC41NCwwLjU1LDAuOTYsMS4wOSwxLjFIMzQuMWMwLjQsMCwwLjM1LTAuNywwLjM1LTEuMXYtMzEuMkwxOS43NSwzeiIvPiYjeGE7CQkJPC9nPiYjeGE7CQkJPGcgaWQ9InNoYXBlNDY2MC05IiB0cmFuc2Zvcm09InRyYW5zbGF0ZSgwLjc0ODgyNSwtMC43NDg4MjUpIj4mI3hhOwkJCQk8dGl0bGUgaWQ9InRpdGxlNDY5NzMiPnJlY3QxNTkxODwvdGl0bGU+JiN4YTsJCQkJPHJlY3QgaWQ9InJlY3Q0Njk3NSIgeD0iMCIgeT0iNC41IiBzdHlsZT0iZmlsbDojRTVFNUU1OyIgd2lkdGg9IjExLjk4IiBoZWlnaHQ9IjQ0LjkzIi8+JiN4YTsJCQk8L2c+JiN4YTsJCQk8ZyBpZD0ic2hhcGU0NjYxLTExIiB0cmFuc2Zvcm09InRyYW5zbGF0ZSgxOC43MjA2LC0zMS40NTA3KSI+JiN4YTsJCQkJPHRpdGxlIGlkPSJ0aXRsZTQ2OTc4Ij5wb2x5bGluZTE1OTIwPC90aXRsZT4mI3hhOwkJCQk8cGF0aCBpZD0icGF0aDQ2OTgwIiBpbmtzY2FwZTpjb25uZWN0b3ItY3VydmF0dXJlPSIwIiBzdHlsZT0iZmlsbDpub25lOyIgZD0iTTAsMzQuNDV2MTQuOThoMTUuNzNMMCwzNC40NXoiLz4mI3hhOwkJCQkmI3hhOwkJCQkJPHBhdGggaWQ9InBhdGg0Njk4MiIgaW5rc2NhcGU6Y29ubmVjdG9yLWN1cnZhdHVyZT0iMCIgc3R5bGU9ImZpbGw6bm9uZTtzdHJva2U6IzU1NkE4QTtzdHJva2Utd2lkdGg6MS41O3N0cm9rZS1taXRlcmxpbWl0OjM7IiBkPSIgICAgICBNMCwzNC40NXYxNC45OGgxNS43MyIvPiYjeGE7CQkJPC9nPiYjeGE7CQkJPGcgaWQ9InNoYXBlNDY2Mi0xNCIgdHJhbnNmb3JtPSJ0cmFuc2xhdGUoOS42ODI5NywtMzAuNzAxOCkiPiYjeGE7CQkJCTx0aXRsZSBpZD0idGl0bGU0Njk4NSI+bGluZTE1OTIyPC90aXRsZT4mI3hhOwkJCQkmI3hhOwkJCQkJPHBhdGggaWQ9InBhdGg0Njk4NyIgaW5rc2NhcGU6Y29ubmVjdG9yLWN1cnZhdHVyZT0iMCIgc3R5bGU9ImZpbGw6bm9uZTtzdHJva2U6I0E3QTlBQztzdHJva2Utd2lkdGg6MS41O3N0cm9rZS1taXRlcmxpbWl0OjM7IiBkPSIgICAgICBNMCw0OS40M2g1LjI5Ii8+JiN4YTsJCQk8L2c+JiN4YTsJCQk8ZyBpZD0ic2hhcGU0NjYzLTE3IiB0cmFuc2Zvcm09InRyYW5zbGF0ZSg5LjY4Mjk2LC0yMy45NjI0KSI+JiN4YTsJCQkJPHRpdGxlIGlkPSJ0aXRsZTQ2OTkwIj5saW5lMTU5MjQ8L3RpdGxlPiYjeGE7CQkJCSYjeGE7CQkJCQk8cGF0aCBpZD0icGF0aDQ2OTkyIiBpbmtzY2FwZTpjb25uZWN0b3ItY3VydmF0dXJlPSIwIiBzdHlsZT0iZmlsbDpub25lO3N0cm9rZTojQTdBOUFDO3N0cm9rZS13aWR0aDoxLjU7c3Ryb2tlLW1pdGVybGltaXQ6MzsiIGQ9IiAgICAgIE0wLDQ5LjQzaDE5LjUyIi8+JiN4YTsJCQk8L2c+JiN4YTsJCQk8ZyBpZD0ic2hhcGU0NjY0LTIwIiB0cmFuc2Zvcm09InRyYW5zbGF0ZSg5LjY4Mjk2LC0xNy4yMjMpIj4mI3hhOwkJCQk8dGl0bGUgaWQ9InRpdGxlNDY5OTUiPmxpbmUxNTkyNjwvdGl0bGU+JiN4YTsJCQkJJiN4YTsJCQkJCTxwYXRoIGlkPSJwYXRoNDY5OTciIGlua3NjYXBlOmNvbm5lY3Rvci1jdXJ2YXR1cmU9IjAiIHN0eWxlPSJmaWxsOm5vbmU7c3Ryb2tlOiNBN0E5QUM7c3Ryb2tlLXdpZHRoOjEuNTtzdHJva2UtbWl0ZXJsaW1pdDozOyIgZD0iICAgICAgTTAsNDkuNDNoMTkuNTIiLz4mI3hhOwkJCTwvZz4mI3hhOwkJCTxnIGlkPSJzaGFwZTQ2NjUtMjMiIHRyYW5zZm9ybT0idHJhbnNsYXRlKDkuNjgyOTYsLTEwLjQ4MzYpIj4mI3hhOwkJCQk8dGl0bGUgaWQ9InRpdGxlNDcwMDAiPmxpbmUxNTkyODwvdGl0bGU+JiN4YTsJCQkJJiN4YTsJCQkJCTxwYXRoIGlkPSJwYXRoNDcwMDIiIGlua3NjYXBlOmNvbm5lY3Rvci1jdXJ2YXR1cmU9IjAiIHN0eWxlPSJmaWxsOm5vbmU7c3Ryb2tlOiNBN0E5QUM7c3Ryb2tlLXdpZHRoOjEuNTtzdHJva2UtbWl0ZXJsaW1pdDozOyIgZD0iICAgICAgTTAsNDkuNDNoMTkuNTIiLz4mI3hhOwkJCTwvZz4mI3hhOwkJPC9nPiYjeGE7CQk8ZyBpZD0ic2hhcGU0NjY2LTI2IiB0cmFuc2Zvcm09InRyYW5zbGF0ZSgzLjM0MjMxLC0yNy41NjY3KSI+JiN4YTsJCQk8dGl0bGUgaWQ9InRpdGxlNDcwMDYiPlNoZWV0LjQ2NjY8L3RpdGxlPiYjeGE7CQkJPHBhdGggaWQ9InBhdGg0NzAwOCIgaW5rc2NhcGU6Y29ubmVjdG9yLWN1cnZhdHVyZT0iMCIgc3R5bGU9ImZpbGw6IzU1NkE4QTsiIGQ9Ik0wLjk0LDQ3Ljgzdi0wLjJjMC0wLjI5LDAuMDYtMC41MSwwLjEyLTAuNyAgICAgYzAuMDktMC4xNiwwLjI3LTAuMzcsMC40OC0wLjU1YzAuMzItMC4yOSwwLjUxLTAuNDcsMC42MS0wLjYyYzAuMDgtMC4xNiwwLjEyLTAuMywwLjEyLTAuNDljMC0wLjI0LTAuMDgtMC40MS0wLjIyLTAuNTUgICAgIGMtMC4xNy0wLjE2LTAuMzktMC4yLTAuNjgtMC4yYy0wLjIsMC0wLjM3LDAuMDItMC41MywwLjA2Yy0wLjE4LDAuMDYtMC4zOSwwLjE0LTAuNjEsMC4yNkwwLDQ0LjM3ICAgICBjMC40My0wLjI0LDAuOTItMC4zNSwxLjQxLTAuMzVjMC40MywwLDAuODIsMC4xMywxLjA3LDAuMzVjMC4yNiwwLjI1LDAuMzksMC41NiwwLjM5LDAuOTZjMCwwLjE3LTAuMDIsMC4zMy0wLjA5LDAuNDYgICAgIGMtMC4wNCwwLjEyLTAuMTIsMC4yNi0wLjIsMC4zOGMtMC4wOCwwLjEzLTAuMzEsMC4zMS0wLjU5LDAuNTZjLTAuMjUsMC4yLTAuMzcsMC4zOS0wLjQ1LDAuNTFjLTAuMDksMC4xNC0wLjEzLDAuMzUtMC4xMywwLjU1ICAgICB2MC4xMkgwLjk2di0wLjA4TDAuOTQsNDcuODN6IE0wLjc2LDQ4LjkyYzAtMC4zNSwwLjE2LTAuNDksMC40MS0wLjQ5YzAuMTYsMCwwLjI2LDAuMDQsMC4zNCwwLjEyYzAuMDcsMC4wOCwwLjEzLDAuMiwwLjEzLDAuMzkgICAgIGMwLDAuMTQtMC4wNiwwLjI4LTAuMTMsMC4zNWMtMC4wOCwwLjA4LTAuMTgsMC4xNC0wLjM0LDAuMTRjLTAuMTMsMC0wLjIzLTAuMDYtMC4zMS0wLjE0QzAuODIsNDkuMTYsMC43Niw0OS4wOCwwLjc2LDQ4LjkyeiIvPiYjeGE7CQk8L2c+JiN4YTsJCTxnIGlkPSJzaGFwZTQ2NjctMjgiIHRyYW5zZm9ybT0idHJhbnNsYXRlKDMuMzQyMzEsLTIxLjExNzgpIj4mI3hhOwkJCTx0aXRsZSBpZD0idGl0bGU0NzAxMSI+U2hlZXQuNDY2NzwvdGl0bGU+JiN4YTsJCQk8cGF0aCBpZD0icGF0aDQ3MDEzIiBpbmtzY2FwZTpjb25uZWN0b3ItY3VydmF0dXJlPSIwIiBzdHlsZT0iZmlsbDojNTU2QThBOyIgZD0iTTAuOTQsNDcuODN2LTAuMmMwLTAuMjksMC4wNi0wLjUxLDAuMTItMC43ICAgICBjMC4wOS0wLjE2LDAuMjctMC4zNywwLjQ4LTAuNTVjMC4zMi0wLjI5LDAuNTEtMC40NywwLjYxLTAuNjJjMC4wOC0wLjE2LDAuMTItMC4zLDAuMTItMC40OWMwLTAuMjQtMC4wOC0wLjQxLTAuMjItMC41NSAgICAgYy0wLjE3LTAuMTYtMC4zOS0wLjItMC42OC0wLjJjLTAuMiwwLTAuMzcsMC4wMi0wLjUzLDAuMDZjLTAuMTgsMC4wNi0wLjM5LDAuMTQtMC42MSwwLjI2TDAsNDQuMzcgICAgIGMwLjQzLTAuMjQsMC45Mi0wLjM1LDEuNDEtMC4zNWMwLjQzLDAsMC44MiwwLjEzLDEuMDcsMC4zNWMwLjI2LDAuMjUsMC4zOSwwLjU2LDAuMzksMC45NmMwLDAuMTctMC4wMiwwLjMzLTAuMDksMC40NiAgICAgYy0wLjA0LDAuMTItMC4xMiwwLjI2LTAuMiwwLjM4Yy0wLjA4LDAuMTMtMC4zMSwwLjMxLTAuNTksMC41NmMtMC4yNSwwLjItMC4zNywwLjM5LTAuNDUsMC41MWMtMC4wOSwwLjE0LTAuMTMsMC4zNS0wLjEzLDAuNTUgICAgIHYwLjEySDAuOTZ2LTAuMDhMMC45NCw0Ny44M3ogTTAuNzYsNDguOTJjMC0wLjM1LDAuMTYtMC40OSwwLjQxLTAuNDljMC4xNiwwLDAuMjYsMC4wNCwwLjM0LDAuMTJjMC4wNywwLjA4LDAuMTMsMC4yLDAuMTMsMC4zOSAgICAgYzAsMC4xNC0wLjA2LDAuMjgtMC4xMywwLjM1Yy0wLjA4LDAuMDgtMC4xOCwwLjE0LTAuMzQsMC4xNGMtMC4xMywwLTAuMjMtMC4wNi0wLjMxLTAuMTRDMC44Miw0OS4xNiwwLjc2LDQ5LjA4LDAuNzYsNDguOTJ6Ii8+JiN4YTsJCTwvZz4mI3hhOwkJPGcgaWQ9InNoYXBlNDY2OC0zMCIgdHJhbnNmb3JtPSJ0cmFuc2xhdGUoMy4xOTMxMiwtMTQuODg1NCkiPiYjeGE7CQkJPHRpdGxlIGlkPSJ0aXRsZTQ3MDE2Ij5TaGVldC40NjY4PC90aXRsZT4mI3hhOwkJCTxwYXRoIGlkPSJwYXRoNDcwMTgiIGlua3NjYXBlOmNvbm5lY3Rvci1jdXJ2YXR1cmU9IjAiIHN0eWxlPSJmaWxsOiM1NTZBOEE7IiBkPSJNMC45NCw0Ny44M3YtMC4yYzAtMC4yOSwwLjA2LTAuNTEsMC4xMi0wLjcgICAgIGMwLjA5LTAuMTYsMC4yNy0wLjM3LDAuNDgtMC41NWMwLjMyLTAuMjksMC41MS0wLjQ3LDAuNjEtMC42MmMwLjA4LTAuMTYsMC4xMi0wLjMsMC4xMi0wLjQ5YzAtMC4yNC0wLjA4LTAuNDEtMC4yMi0wLjU1ICAgICBjLTAuMTctMC4xNi0wLjM5LTAuMi0wLjY4LTAuMmMtMC4yLDAtMC4zNywwLjAyLTAuNTMsMC4wNmMtMC4xOCwwLjA2LTAuMzksMC4xNC0wLjYxLDAuMjZMMCw0NC4zNyAgICAgYzAuNDMtMC4yNCwwLjkyLTAuMzUsMS40MS0wLjM1YzAuNDMsMCwwLjgyLDAuMTMsMS4wNywwLjM1YzAuMjYsMC4yNSwwLjM5LDAuNTYsMC4zOSwwLjk2YzAsMC4xNy0wLjAyLDAuMzMtMC4wOSwwLjQ2ICAgICBjLTAuMDQsMC4xMi0wLjEyLDAuMjYtMC4yLDAuMzhjLTAuMDgsMC4xMy0wLjMxLDAuMzEtMC41OSwwLjU2Yy0wLjI1LDAuMi0wLjM3LDAuMzktMC40NSwwLjUxYy0wLjA5LDAuMTQtMC4xMywwLjM1LTAuMTMsMC41NSAgICAgdjAuMTJIMC45NnYtMC4wOEwwLjk0LDQ3LjgzeiBNMC43Niw0OC45MmMwLTAuMzUsMC4xNi0wLjQ5LDAuNDEtMC40OWMwLjE2LDAsMC4yNiwwLjA0LDAuMzQsMC4xMmMwLjA3LDAuMDgsMC4xMywwLjIsMC4xMywwLjM5ICAgICBjMCwwLjE0LTAuMDYsMC4yOC0wLjEzLDAuMzVjLTAuMDgsMC4wOC0wLjE4LDAuMTQtMC4zNCwwLjE0Yy0wLjEzLDAtMC4yMy0wLjA2LTAuMzEtMC4xNEMwLjgyLDQ5LjE2LDAuNzYsNDkuMDgsMC43Niw0OC45MnoiLz4mI3hhOwkJPC9nPiYjeGE7CQk8ZyBpZD0ic2hhcGU0NjY5LTMyIiB0cmFuc2Zvcm09InRyYW5zbGF0ZSgzLjE5MzEyLC04LjY5Mzk2KSI+JiN4YTsJCQk8dGl0bGUgaWQ9InRpdGxlNDcwMjEiPlNoZWV0LjQ2Njk8L3RpdGxlPiYjeGE7CQkJPHBhdGggaWQ9InBhdGg0NzAyMyIgaW5rc2NhcGU6Y29ubmVjdG9yLWN1cnZhdHVyZT0iMCIgc3R5bGU9ImZpbGw6IzU1NkE4QTsiIGQ9Ik0wLjk0LDQ3Ljgzdi0wLjJjMC0wLjI5LDAuMDYtMC41MSwwLjEyLTAuNyAgICAgYzAuMDktMC4xNiwwLjI3LTAuMzcsMC40OC0wLjU1YzAuMzItMC4yOSwwLjUxLTAuNDcsMC42MS0wLjYyYzAuMDgtMC4xNiwwLjEyLTAuMywwLjEyLTAuNDljMC0wLjI0LTAuMDgtMC40MS0wLjIyLTAuNTUgICAgIGMtMC4xNy0wLjE2LTAuMzktMC4yLTAuNjgtMC4yYy0wLjIsMC0wLjM3LDAuMDItMC41MywwLjA2Yy0wLjE4LDAuMDYtMC4zOSwwLjE0LTAuNjEsMC4yNkwwLDQ0LjM3ICAgICBjMC40My0wLjI0LDAuOTItMC4zNSwxLjQxLTAuMzVjMC40MywwLDAuODIsMC4xMywxLjA3LDAuMzVjMC4yNiwwLjI1LDAuMzksMC41NiwwLjM5LDAuOTZjMCwwLjE3LTAuMDIsMC4zMy0wLjA5LDAuNDYgICAgIGMtMC4wNCwwLjEyLTAuMTIsMC4yNi0wLjIsMC4zOGMtMC4wOCwwLjEzLTAuMzEsMC4zMS0wLjU5LDAuNTZjLTAuMjUsMC4yLTAuMzcsMC4zOS0wLjQ1LDAuNTFjLTAuMDksMC4xNC0wLjEzLDAuMzUtMC4xMywwLjU1ICAgICB2MC4xMkgwLjk2di0wLjA4TDAuOTQsNDcuODN6IE0wLjc2LDQ4LjkyYzAtMC4zNSwwLjE2LTAuNDksMC40MS0wLjQ5YzAuMTYsMCwwLjI2LDAuMDQsMC4zNCwwLjEyYzAuMDcsMC4wOCwwLjEzLDAuMiwwLjEzLDAuMzkgICAgIGMwLDAuMTQtMC4wNiwwLjI4LTAuMTMsMC4zNWMtMC4wOCwwLjA4LTAuMTgsMC4xNC0wLjM0LDAuMTRjLTAuMTMsMC0wLjIzLTAuMDYtMC4zMS0wLjE0QzAuODIsNDkuMTYsMC43Niw0OS4wOCwwLjc2LDQ4LjkyeiIvPiYjeGE7CQk8L2c+JiN4YTsJPC9nPiYjeGE7PC9nPiYjeGE7PC9zdmc+;rounded=0;shadow=1;glass=0;sketch=0;strokeWidth=2;fontSize=16;fontColor=#000000;" vertex="1" parent="1">
          <mxGeometry x="821" y="205" width="60" height="80" as="geometry" />
        </mxCell>
        <mxCell id="Tbavl_EoWam0O7su7ffe-61" value="&lt;b&gt;&lt;font style=&quot;font-size: 18px;&quot;&gt;Write ahead logging&lt;/font&gt;&lt;/b&gt;" style="text;html=1;strokeColor=none;fillColor=none;align=center;verticalAlign=middle;whiteSpace=wrap;rounded=0;shadow=1;glass=0;sketch=0;strokeWidth=2;fontSize=16;fontColor=#000000;" vertex="1" parent="1">
          <mxGeometry x="647" y="300" width="206" height="30" as="geometry" />
        </mxCell>
        <mxCell id="Tbavl_EoWam0O7su7ffe-62" value="" style="shape=image;verticalLabelPosition=bottom;labelBackgroundColor=#ffffff;verticalAlign=top;aspect=fixed;imageAspect=0;image=data:image/svg+xml,PHN2ZyB4bWxuczpjYz0iaHR0cDovL2NyZWF0aXZlY29tbW9ucy5vcmcvbnMjIiB4bWxuczpkYz0iaHR0cDovL3B1cmwub3JnL2RjL2VsZW1lbnRzLzEuMS8iIHhtbG5zOmlua3NjYXBlPSJodHRwOi8vd3d3Lmlua3NjYXBlLm9yZy9uYW1lc3BhY2VzL2lua3NjYXBlIiB4bWxuczpyZGY9Imh0dHA6Ly93d3cudzMub3JnLzE5OTkvMDIvMjItcmRmLXN5bnRheC1ucyMiIHhtbG5zOnNvZGlwb2RpPSJodHRwOi8vc29kaXBvZGkuc291cmNlZm9yZ2UubmV0L0RURC9zb2RpcG9kaS0wLmR0ZCIgeG1sbnM6c3ZnPSJodHRwOi8vd3d3LnczLm9yZy8yMDAwL3N2ZyIgeG1sbnM9Imh0dHA6Ly93d3cudzMub3JnLzIwMDAvc3ZnIiB4bWxuczp4bGluaz0iaHR0cDovL3d3dy53My5vcmcvMTk5OS94bGluayIgdmVyc2lvbj0iMS4xIiBpZD0ic3ZnNTMwNjEiIGlua3NjYXBlOnZlcnNpb249IjAuOTIuMyAoMjQwNTU0NiwgMjAxOC0wMy0xMSkiIHNvZGlwb2RpOmRvY25hbWU9InRhc2tfZmlsZV9vcmFuZ2Uuc3ZnIiB4PSIwcHgiIHk9IjBweCIgdmlld0JveD0iMCAwIDI3Ljc4IDM4LjI2IiBzdHlsZT0iZW5hYmxlLWJhY2tncm91bmQ6bmV3IDAgMCAyNy43OCAzOC4yNjsiIHhtbDpzcGFjZT0icHJlc2VydmUiPiYjeGE7PHNvZGlwb2RpOm5hbWVkdmlldyBib3JkZXJjb2xvcj0iIzY2NjY2NiIgYm9yZGVyb3BhY2l0eT0iMSIgZml0LW1hcmdpbi1ib3R0b209IjAiIGZpdC1tYXJnaW4tbGVmdD0iMCIgZml0LW1hcmdpbi1yaWdodD0iMCIgZml0LW1hcmdpbi10b3A9IjAiIGdyaWR0b2xlcmFuY2U9IjEwIiBndWlkZXRvbGVyYW5jZT0iMTAiIGlkPSJuYW1lZHZpZXc1MzA2MyIgaW5rc2NhcGU6Y3VycmVudC1sYXllcj0ic3ZnNTMwNjEiIGlua3NjYXBlOmN4PSIzNS43NDg2OTMiIGlua3NjYXBlOmN5PSIxOS4zNDIwNDEiIGlua3NjYXBlOnBhZ2VvcGFjaXR5PSIwIiBpbmtzY2FwZTpwYWdlc2hhZG93PSIyIiBpbmtzY2FwZTp3aW5kb3ctaGVpZ2h0PSIxMDE3IiBpbmtzY2FwZTp3aW5kb3ctbWF4aW1pemVkPSIxIiBpbmtzY2FwZTp3aW5kb3ctd2lkdGg9IjE5MjAiIGlua3NjYXBlOndpbmRvdy14PSItOCIgaW5rc2NhcGU6d2luZG93LXk9Ii04IiBpbmtzY2FwZTp6b29tPSIxMS40MzM0NDMiIG9iamVjdHRvbGVyYW5jZT0iMTAiIHBhZ2Vjb2xvcj0iI2ZmZmZmZiIgc2hvd2dyaWQ9ImZhbHNlIj4mI3hhOwk8L3NvZGlwb2RpOm5hbWVkdmlldz4mI3hhOzxnIGlkPSJzaGFwZTQ1NTAtMyIgdHJhbnNmb3JtPSJ0cmFuc2xhdGUoMC43NTAxOTYyMywtMi43MSkiPiYjeGE7CTx0aXRsZSBpZD0idGl0bGU1Mjk5MiI+cGF0aDIwNzU8L3RpdGxlPiYjeGE7CTxwYXRoIGlkPSJwYXRoNTI5OTQiIGlua3NjYXBlOmNvbm5lY3Rvci1jdXJ2YXR1cmU9IjAiIHN0eWxlPSJmaWxsOiNGRkZGRkY7IiBkPSJNMTQuOCwzLjQ2SDAuNTVDMC4yNCwzLjQ3LTAuMDEsMy43MywwLDQuMDQgICBjMCwwLDAsMCwwLDBsMCwzNS42Yy0wLjAxLDAuMzEsMC4yNCwwLjU3LDAuNTUsMC41OGMwLDAsMCwwLDAsMGwyNS4xOC0wLjAxYzAuMzEtMC4wMSwwLjU2LTAuMjcsMC41NS0wLjU4YzAsMCwwLDAsMCwwbDAtMjQuNjggICBMMTQuOCwzLjQ2eiIvPiYjeGE7PC9nPiYjeGE7PGcgaWQ9InNoYXBlNDU1MS01IiB0cmFuc2Zvcm09InRyYW5zbGF0ZSgxNS4wMzAxOTYsLTI4LjIxKSI+JiN4YTsJPHRpdGxlIGlkPSJ0aXRsZTUyOTk3Ij5wb2x5Z29uMjA3NzwvdGl0bGU+JiN4YTsJPHBhdGggaWQ9InBhdGg1Mjk5OSIgaW5rc2NhcGU6Y29ubmVjdG9yLWN1cnZhdHVyZT0iMCIgc3R5bGU9ImZpbGw6I0ZGQjkwMDsiIGQ9Ik0wLDI4LjVsMTIuMzEsMTEuNzFIMFYyOC41eiIvPiYjeGE7PC9nPiYjeGE7PGcgaWQ9InNoYXBlNDU1Mi03IiB0cmFuc2Zvcm09InRyYW5zbGF0ZSgwLjc1MDE5NjIzLC0yLjcxKSI+JiN4YTsJPHRpdGxlIGlkPSJ0aXRsZTUzMDAyIj5wYXRoMjA3OTwvdGl0bGU+JiN4YTsJJiN4YTsJCTxwYXRoIGlkPSJwYXRoNTMwMDQiIGlua3NjYXBlOmNvbm5lY3Rvci1jdXJ2YXR1cmU9IjAiIHN0eWxlPSJmaWxsOm5vbmU7c3Ryb2tlOiM1NTZBOEE7c3Ryb2tlLXdpZHRoOjEuNTtzdHJva2UtbWl0ZXJsaW1pdDozOyIgZD0iICAgTTE0LjgsMy40NkgwLjU1QzAuMjQsMy40Ny0wLjAxLDMuNzMsMCw0LjA0YzAsMCwwLDAsMCwwbDAsMzUuNmMtMC4wMSwwLjMxLDAuMjQsMC41NywwLjU1LDAuNThjMCwwLDAsMCwwLDBsMjUuMTgtMC4wMSAgIGMwLjMxLTAuMDEsMC41Ni0wLjI3LDAuNTUtMC41OGMwLDAsMCwwLDAsMGwwLTI0LjY4TDE0LjgsMy40NnoiLz4mI3hhOzwvZz4mI3hhOzxnIGlkPSJzaGFwZTQ1NTMtOSIgdHJhbnNmb3JtPSJ0cmFuc2xhdGUoMS41MzAxOTYyLC0zLjU0OTk5OSkiPiYjeGE7CTx0aXRsZSBpZD0idGl0bGU1MzAwNyI+cmVjdDIwODE8L3RpdGxlPiYjeGE7CTxyZWN0IGlkPSJyZWN0NTMwMDkiIHg9IjAiIHk9IjUuMDUiIHN0eWxlPSJmaWxsOiNFNUU1RTU7IiB3aWR0aD0iOC4yNSIgaGVpZ2h0PSIzNS4xNiIvPiYjeGE7PC9nPiYjeGE7PGcgaWQ9InNoYXBlNDU1NC0xMSIgdHJhbnNmb3JtPSJ0cmFuc2xhdGUoMTUuMDMwMTk2LC0yOC4yMSkiPiYjeGE7CTx0aXRsZSBpZD0idGl0bGU1MzAxMiI+cG9seWxpbmUyMDgzPC90aXRsZT4mI3hhOwk8cGF0aCBpZD0icGF0aDUzMDE0IiBpbmtzY2FwZTpjb25uZWN0b3ItY3VydmF0dXJlPSIwIiBzdHlsZT0iZmlsbDpub25lOyIgZD0iTTAsMjguNXYxMS43MWgxMkwwLDI4LjV6Ii8+JiN4YTsJJiN4YTsJCTxwYXRoIGlkPSJwYXRoNTMwMTYiIGlua3NjYXBlOmNvbm5lY3Rvci1jdXJ2YXR1cmU9IjAiIHN0eWxlPSJmaWxsOm5vbmU7c3Ryb2tlOiM1NTZBOEE7c3Ryb2tlLXdpZHRoOjEuNTtzdHJva2UtbWl0ZXJsaW1pdDozOyIgZD0iICAgTTAsMjguNXYxMS43MWgxMiIvPiYjeGE7PC9nPiYjeGE7PGcgaWQ9InNoYXBlNDU1NS0xNCIgdHJhbnNmb3JtPSJ0cmFuc2xhdGUoLTQuNDY5ODAzOCwtMi43MSkiPiYjeGE7CTx0aXRsZSBpZD0idGl0bGU1MzAxOSI+cmVjdDIwODU8L3RpdGxlPiYjeGE7CTxyZWN0IGlkPSJyZWN0NTMwMjEiIHg9IjAiIHk9IjIuNzEiIHN0eWxlPSJmaWxsOm5vbmU7IiB3aWR0aD0iMzcuNSIgaGVpZ2h0PSIzNy41Ii8+JiN4YTs8L2c+JiN4YTs8ZyBpZD0ic2hhcGU0NTU3LTE3IiB0cmFuc2Zvcm09InRyYW5zbGF0ZSg0LjExMDE5NjIsLTIyLjIxKSI+JiN4YTsJPHRpdGxlIGlkPSJ0aXRsZTUzMDI3Ij5wYXRoMjA4OTwvdGl0bGU+JiN4YTsJPHBhdGggaWQ9InBhdGg1MzAyOSIgaW5rc2NhcGU6Y29ubmVjdG9yLWN1cnZhdHVyZT0iMCIgc3R5bGU9ImZpbGw6IzU1NkE4QTsiIGQ9Ik0yLjE0LDM0LjMxdjUuOUgxLjIxdi00Ljc2ICAgYy0wLjE3LDAuMTItMC4zNSwwLjIzLTAuNTQsMC4zMUMwLjQ1LDM1Ljg1LDAuMjMsMzUuOTIsMCwzNS45OHYtMC43OWwwLjQ1LTAuMTZjMC4xNC0wLjA1LDAuMjktMC4xMiwwLjQzLTAuMTkgICBjMC4xNC0wLjA2LDAuMjgtMC4xNSwwLjQyLTAuMjNjMC4xNS0wLjA4LDAuMy0wLjE5LDAuNDUtMC4yOUwyLjE0LDM0LjMxeiIvPiYjeGE7PC9nPiYjeGE7PGcgaWQ9InNoYXBlNDU1OC0xOSIgdHJhbnNmb3JtPSJ0cmFuc2xhdGUoNC4xNzc2OTYyLC0xMy45NikiPiYjeGE7CTx0aXRsZSBpZD0idGl0bGU1MzAzMiI+cGF0aDIwOTE8L3RpdGxlPiYjeGE7CTxwYXRoIGlkPSJwYXRoNTMwMzQiIGlua3NjYXBlOmNvbm5lY3Rvci1jdXJ2YXR1cmU9IjAiIHN0eWxlPSJmaWxsOiM1NTZBOEE7IiBkPSJNMy42Miw0MC4yMUgwdi0wLjQ1YzAtMC4xNywwLjAyLTAuMzQsMC4wNy0wLjUxICAgYzAuMDUtMC4xNiwwLjEyLTAuMzEsMC4yMS0wLjQ1YzAuMDktMC4xNCwwLjE5LTAuMjgsMC4zLTAuNGMwLjExLTAuMTMsMC4yMy0wLjI1LDAuMzYtMC4zNmwwLjQxLTAuMzRsMC40LTAuMzMgICBjMC4xMy0wLjEsMC4yNC0wLjIxLDAuMzQtMC4zMWMwLjEtMC4wOSwwLjE4LTAuMiwwLjI2LTAuMzFjMC4wOC0wLjEsMC4xNC0wLjIyLDAuMTgtMC4zNGMwLjA0LTAuMTMsMC4wNi0wLjI2LDAuMDYtMC4zOSAgIGMwLTAuMTQtMC4wMi0wLjI3LTAuMDctMC40Yy0wLjA0LTAuMTEtMC4xMS0wLjIxLTAuMTktMC4yOGMtMC4wOS0wLjA4LTAuMTktMC4xNC0wLjMtMC4xN2MtMC4xMi0wLjA0LTAuMjUtMC4wNi0wLjM4LTAuMDUgICBjLTAuMjYsMC0wLjUxLDAuMDUtMC43NSwwLjE2Yy0wLjI2LDAuMTItMC41LDAuMjktMC43MSwwLjV2LTAuOWMwLjExLTAuMDksMC4yMy0wLjE3LDAuMzYtMC4yNGMwLjEyLTAuMDYsMC4yNS0wLjEyLDAuMzgtMC4xNiAgIGMwLjEzLTAuMDUsMC4yNi0wLjA4LDAuNC0wLjFjMC4xNS0wLjAxLDAuMzEtMC4wMSwwLjQ2LDBjMC4yNCwwLDAuNDgsMC4wNCwwLjcxLDAuMTFjMC4yLDAuMDYsMC4zOCwwLjE2LDAuNTQsMC4zICAgYzAuMTUsMC4xMywwLjI3LDAuMywwLjM1LDAuNDljMC4wOCwwLjIyLDAuMTIsMC40NSwwLjEyLDAuNjhjMCwwLjIxLTAuMDMsMC40My0wLjA5LDAuNjNjLTAuMDYsMC4xOS0wLjE0LDAuMzctMC4yNSwwLjUzICAgYy0wLjExLDAuMTctMC4yNCwwLjMyLTAuMzgsMC40NmMtMC4xNSwwLjE0LTAuMzIsMC4yOS0wLjUsMC40NWwtMC40NywwLjM2Yy0wLjE2LDAuMTItMC4yOSwwLjI0LTAuNDIsMC4zNiAgIGMtMC4xMSwwLjEtMC4yMSwwLjIyLTAuMywwLjM0Yy0wLjA3LDAuMS0wLjExLDAuMjItMC4xMSwwLjM0bDIuNjEsMC4wMUwzLjYyLDQwLjIxeiIvPiYjeGE7PC9nPiYjeGE7PGcgaWQ9InNoYXBlNDU1OS0yMSIgdHJhbnNmb3JtPSJ0cmFuc2xhdGUoNC4yNzUxOTYyLC01LjYwNSkiPiYjeGE7CTx0aXRsZSBpZD0idGl0bGU1MzAzNyI+cGF0aDIwOTM8L3RpdGxlPiYjeGE7CTxwYXRoIGlkPSJwYXRoNTMwMzkiIGlua3NjYXBlOmNvbm5lY3Rvci1jdXJ2YXR1cmU9IjAiIHN0eWxlPSJmaWxsOiM1NTZBOEE7IiBkPSJNMCwzOS45di0wLjg5YzAuMzYsMC4yOSwwLjgxLDAuNDUsMS4yNywwLjQ1ICAgYzAuMzMsMC4wMiwwLjY2LTAuMDcsMC45My0wLjI2YzAuMjMtMC4xNywwLjM2LTAuNDMsMC4zNS0wLjcxYy0wLjAxLTAuNjYtMC41MS0wLjk4LTEuNS0wLjk4SDAuNTl2LTAuNzVIMSAgIGMwLjg5LDAsMS4zNC0wLjMxLDEuMzQtMC45M3MtMC4zNS0wLjkxLTEuMDQtMC44NmMtMC40LDAtMC43OSwwLjE1LTEuMSwwLjQxdi0wLjgxYzAuNDMtMC4yMywwLjkxLTAuMzQsMS4zOS0wLjMzICAgYzAuNDQtMC4wMiwwLjg4LDAuMTIsMS4yMywwLjM5YzAuMywwLjIzLDAuNDgsMC42LDAuNDgsMC45OGMwLjA2LDAuNzItMC40NCwxLjM3LTEuMTYsMS41YzAuMzcsMC4wMiwwLjcyLDAuMTcsMC45OSwwLjQzICAgYzAuMjQsMC4yNSwwLjM3LDAuNTksMC4zNiwwLjk0YzAuMDEsMC40OS0wLjIxLDAuOTUtMC41OSwxLjI1Yy0wLjQ0LDAuMzQtMC45OSwwLjUxLTEuNTQsMC40OEMwLjg5LDQwLjIzLDAuNDIsNDAuMTIsMCwzOS45eiIvPiYjeGE7PC9nPiYjeGE7PHBhdGggaWQ9InBhdGg1MzA0NSIgaW5rc2NhcGU6Y29ubmVjdG9yLWN1cnZhdHVyZT0iMCIgc3R5bGU9ImZpbGw6bm9uZTtzdHJva2U6I0FCQUJBQjtzdHJva2Utd2lkdGg6MS41O3N0cm9rZS1taXRlcmxpbWl0OjM7IiBkPSIgIE0xMS4yOCwzMS41aDEyIi8+JiN4YTs8cGF0aCBpZD0icGF0aDUzMDUwIiBpbmtzY2FwZTpjb25uZWN0b3ItY3VydmF0dXJlPSIwIiBzdHlsZT0iZmlsbDpub25lO3N0cm9rZTojQUJBQkFCO3N0cm9rZS13aWR0aDoxLjU7c3Ryb2tlLW1pdGVybGltaXQ6MzsiIGQ9IiAgTTExLjI4LDI0aDEyIi8+JiN4YTs8cGF0aCBpZD0icGF0aDUzMDU1IiBpbmtzY2FwZTpjb25uZWN0b3ItY3VydmF0dXJlPSIwIiBzdHlsZT0iZmlsbDpub25lO3N0cm9rZTojQUJBQkFCO3N0cm9rZS13aWR0aDoxLjU7c3Ryb2tlLW1pdGVybGltaXQ6MzsiIGQ9IiAgTTExLjI4LDE2LjVoMTIiLz4mI3hhOzwvc3ZnPg==;rounded=0;shadow=1;glass=0;sketch=0;strokeWidth=2;fontSize=18;fontColor=#000000;" vertex="1" parent="1">
          <mxGeometry x="620" y="204.04" width="59.65" height="80.96" as="geometry" />
        </mxCell>
        <mxCell id="Tbavl_EoWam0O7su7ffe-63" value="" style="shape=image;html=1;verticalAlign=top;verticalLabelPosition=bottom;labelBackgroundColor=#ffffff;imageAspect=0;aspect=fixed;image=https://cdn0.iconfinder.com/data/icons/phosphor-regular-vol-3/256/person-128.png;rounded=0;shadow=1;glass=0;sketch=0;strokeWidth=2;fontSize=18;fontColor=#000000;" vertex="1" parent="1">
          <mxGeometry x="-80" y="291" width="78" height="78" as="geometry" />
        </mxCell>
        <mxCell id="Tbavl_EoWam0O7su7ffe-64" value="" style="curved=1;endArrow=classic;html=1;rounded=0;fontSize=18;fontColor=#000000;entryX=0;entryY=0.5;entryDx=0;entryDy=0;strokeWidth=2;sketch=1;fillColor=#6a00ff;strokeColor=#3700CC;dashed=1;shadow=1;" edge="1" parent="1" target="Tbavl_EoWam0O7su7ffe-11">
          <mxGeometry width="50" height="50" relative="1" as="geometry">
            <mxPoint x="-20" y="340" as="sourcePoint" />
            <mxPoint x="55" y="297" as="targetPoint" />
            <Array as="points">
              <mxPoint x="100" y="250" />
            </Array>
          </mxGeometry>
        </mxCell>
        <mxCell id="Tbavl_EoWam0O7su7ffe-65" value="" style="curved=1;endArrow=classic;html=1;rounded=0;sketch=1;strokeWidth=2;fontSize=18;fontColor=#000000;fillColor=#6a00ff;strokeColor=#3700CC;dashed=1;shadow=1;" edge="1" parent="1" target="Tbavl_EoWam0O7su7ffe-62">
          <mxGeometry width="50" height="50" relative="1" as="geometry">
            <mxPoint x="-20" y="340" as="sourcePoint" />
            <mxPoint x="30" y="300" as="targetPoint" />
            <Array as="points">
              <mxPoint x="110" y="160" />
              <mxPoint x="430" y="80" />
            </Array>
          </mxGeometry>
        </mxCell>
        <mxCell id="Tbavl_EoWam0O7su7ffe-68" value="&lt;b&gt;&lt;font style=&quot;font-size: 22px;&quot;&gt;Flushing&lt;/font&gt;&lt;/b&gt;" style="text;html=1;align=center;verticalAlign=middle;resizable=0;points=[];autosize=1;strokeColor=none;fillColor=none;fontSize=18;fontColor=#000000;" vertex="1" parent="1">
          <mxGeometry x="455" y="361" width="120" height="40" as="geometry" />
        </mxCell>
        <mxCell id="Tbavl_EoWam0O7su7ffe-69" value="&lt;b&gt;Full&lt;/b&gt;" style="text;html=1;align=center;verticalAlign=middle;resizable=0;points=[];autosize=1;strokeColor=none;fillColor=none;fontSize=22;fontColor=#000000;rotation=90;" vertex="1" parent="1">
          <mxGeometry x="310" y="300" width="60" height="40" as="geometry" />
        </mxCell>
        <mxCell id="Tbavl_EoWam0O7su7ffe-70" value="&lt;b&gt;Write&lt;/b&gt;" style="text;html=1;align=center;verticalAlign=middle;resizable=0;points=[];autosize=1;strokeColor=none;fillColor=none;fontSize=22;fontColor=#000000;" vertex="1" parent="1">
          <mxGeometry x="-82" y="366" width="80" height="40" as="geometry" />
        </mxCell>
        <mxCell id="Tbavl_EoWam0O7su7ffe-71" value="" style="shape=image;html=1;verticalAlign=top;verticalLabelPosition=bottom;labelBackgroundColor=#ffffff;imageAspect=0;aspect=fixed;image=https://cdn0.iconfinder.com/data/icons/phosphor-regular-vol-3/256/person-128.png;rounded=0;shadow=1;glass=0;sketch=0;strokeWidth=2;fontSize=18;fontColor=#000000;" vertex="1" parent="1">
          <mxGeometry x="-83" y="473" width="78" height="78" as="geometry" />
        </mxCell>
        <mxCell id="Tbavl_EoWam0O7su7ffe-72" value="&lt;b&gt;Read&lt;/b&gt;" style="text;html=1;align=center;verticalAlign=middle;resizable=0;points=[];autosize=1;strokeColor=none;fillColor=none;fontSize=22;fontColor=#000000;" vertex="1" parent="1">
          <mxGeometry x="-83" y="551" width="80" height="40" as="geometry" />
        </mxCell>
        <mxCell id="Tbavl_EoWam0O7su7ffe-73" value="" style="curved=1;endArrow=classic;html=1;rounded=0;sketch=1;strokeWidth=2;fontSize=22;fontColor=#000000;entryX=0;entryY=0.5;entryDx=0;entryDy=0;fillColor=#fa6800;strokeColor=#FF0000;dashed=1;shadow=1;" edge="1" parent="1" target="Tbavl_EoWam0O7su7ffe-13">
          <mxGeometry width="50" height="50" relative="1" as="geometry">
            <mxPoint x="-20" y="520" as="sourcePoint" />
            <mxPoint x="40" y="470" as="targetPoint" />
            <Array as="points">
              <mxPoint x="100" y="500" />
            </Array>
          </mxGeometry>
        </mxCell>
        <mxCell id="Tbavl_EoWam0O7su7ffe-74" value="&lt;section style=&quot;position: relative; background: var(--color-background); font-family: &amp;quot;PingFang SC&amp;quot;; text-align: start;&quot; class=&quot;dictItem isUnfold&quot;&gt;&lt;div style=&quot;overflow: hidden; position: relative; padding: 0px 10px; line-height: 1.6; transition: height 0.4s ease 0s, opacity 0.4s ease 0s; height: 68.0938px;&quot; class=&quot;dictItem-Body&quot;&gt;&lt;article style=&quot;overflow: hidden; opacity: 1; position: relative; transition: opacity 0.4s ease 0s;&quot; class=&quot;dictItem-BodyMesure&quot;&gt;&lt;div style=&quot;margin-bottom: 10px !important;&quot;&gt;&lt;div style=&quot;&quot; class=&quot;&quot;&gt;&lt;div style=&quot;-webkit-font-smoothing: antialiased; text-rendering: optimizelegibility; font-family: &amp;quot;Helvetica Neue&amp;quot;, Helvetica, Arial, &amp;quot;Hiragino Sans GB&amp;quot;, &amp;quot;Hiragino Sans GB W3&amp;quot;, &amp;quot;Microsoft YaHei UI&amp;quot;, &amp;quot;Microsoft YaHei&amp;quot;, sans-serif;&quot; class=&quot;d-google dictRoot saladict-panel isAnimate&quot;&gt;&lt;div style=&quot;&quot; class=&quot;MachineTrans-Text&quot;&gt;&lt;div style=&quot;position: relative; margin: 0.5em 0px; padding-left: 1.5em;&quot; class=&quot;MachineTrans-Lines&quot;&gt;&lt;p style=&quot;margin: 0.3em 0px;&quot; class=&quot;MachineTrans-lang-en&quot;&gt;&lt;b style=&quot;&quot;&gt;&lt;font color=&quot;#ff0000&quot; style=&quot;font-size: 18px;&quot;&gt;Does it exist&lt;/font&gt;&lt;/b&gt;&lt;/p&gt;&lt;/div&gt;&lt;/div&gt;&lt;/div&gt;&lt;/div&gt;&lt;/div&gt;&lt;/article&gt;&lt;/div&gt;&lt;/section&gt;&lt;section style=&quot;position: relative; background: var(--color-background); color: rgb(51, 51, 51); font-family: &amp;quot;PingFang SC&amp;quot;; font-size: medium; text-align: start;&quot; class=&quot;dictItem isUnfold&quot;&gt;&lt;/section&gt;" style="text;html=1;align=center;verticalAlign=middle;resizable=0;points=[];autosize=1;strokeColor=none;fillColor=none;fontSize=22;fontColor=#000000;" vertex="1" parent="1">
          <mxGeometry x="-35" y="457" width="180" height="80" as="geometry" />
        </mxCell>
        <mxCell id="Tbavl_EoWam0O7su7ffe-76" value="" style="curved=1;endArrow=classic;html=1;rounded=0;dashed=1;sketch=1;strokeColor=#FF0000;strokeWidth=2;fontSize=16;fontColor=#FF0000;shadow=1;" edge="1" parent="1">
          <mxGeometry width="50" height="50" relative="1" as="geometry">
            <mxPoint x="220" y="530" as="sourcePoint" />
            <mxPoint x="220" y="260" as="targetPoint" />
            <Array as="points">
              <mxPoint x="220" y="530" />
              <mxPoint x="100" y="400" />
            </Array>
          </mxGeometry>
        </mxCell>
        <mxCell id="Tbavl_EoWam0O7su7ffe-77" value="&lt;b&gt;&lt;font style=&quot;font-size: 18px;&quot;&gt;Yes&lt;/font&gt;&lt;/b&gt;" style="text;html=1;align=center;verticalAlign=middle;resizable=0;points=[];autosize=1;strokeColor=none;fillColor=none;fontSize=16;fontColor=#FF0000;" vertex="1" parent="1">
          <mxGeometry x="110" y="369" width="50" height="40" as="geometry" />
        </mxCell>
        <mxCell id="Tbavl_EoWam0O7su7ffe-78" value="&lt;b&gt;&lt;font color=&quot;#3333ff&quot;&gt;Logging&lt;/font&gt;&lt;/b&gt;" style="text;html=1;align=center;verticalAlign=middle;resizable=0;points=[];autosize=1;strokeColor=none;fillColor=none;fontSize=18;fontColor=#FF0000;" vertex="1" parent="1">
          <mxGeometry x="295" y="70" width="90" height="40" as="geometry" />
        </mxCell>
        <mxCell id="Tbavl_EoWam0O7su7ffe-79" value="&lt;b&gt;Write Data&lt;/b&gt;" style="text;html=1;align=center;verticalAlign=middle;resizable=0;points=[];autosize=1;strokeColor=none;fillColor=none;fontSize=18;fontColor=#3333FF;rotation=-20;" vertex="1" parent="1">
          <mxGeometry x="50" y="270" width="110" height="40" as="geometry" />
        </mxCell>
        <mxCell id="Tbavl_EoWam0O7su7ffe-81" value="&lt;font color=&quot;#ff0000&quot;&gt;&lt;b&gt;Read&lt;/b&gt;&lt;/font&gt;" style="text;html=1;align=center;verticalAlign=middle;resizable=0;points=[];autosize=1;strokeColor=none;fillColor=none;fontSize=18;fontColor=#3333FF;rotation=-35;" vertex="1" parent="1">
          <mxGeometry x="490" y="471" width="70" height="40" as="geometry" />
        </mxCell>
      </root>
    </mxGraphModel>
  </diagram>
</mxfile>
